<svg width="93" height="85" viewBox="0 0 93 85" fill="none" xmlns="http://www.w3.org/2000/svg">
<path d="M35.3965 13.3703V10.5325C35.3965 5.63457 39.3669 1.66406 44.2647 1.66406H47.8121C52.7099 1.66406 56.6803 5.63457 56.6803 10.5325V13.3703" stroke="#2370FF" stroke-width="3.32554" stroke-linecap="round" stroke-linejoin="round"/>
<g filter="url(#filter0_dddii_1300_26860)">
<path d="M46.0406 13.3672C39.4998 13.3672 32.6626 13.3672 26.931 14.3916C24.1836 14.8826 22.0193 16.9806 21.4295 19.7085C20.5 24.0069 20.5 28.0163 20.5 34.1192C20.5 40.2222 20.5 44.2314 21.4295 48.53C22.0193 51.2579 24.1836 53.3557 26.931 53.847C32.6626 54.8713 39.4998 54.8713 46.0406 54.8713C52.5815 54.8713 59.4187 54.8713 65.1502 53.847C67.8976 53.3557 70.0619 51.2579 70.6517 48.53C71.5811 44.2314 71.5811 40.2222 71.5811 34.1192C71.5811 28.0163 71.5811 24.0069 70.6517 19.7085C70.0619 16.9806 67.8976 14.8826 65.1502 14.3916C59.4187 13.3672 52.5815 13.3672 46.0406 13.3672Z" fill="url(#paint0_linear_1300_26860)"/>
<path d="M46.0406 13.3672C39.4998 13.3672 32.6626 13.3672 26.931 14.3916C24.1836 14.8826 22.0193 16.9806 21.4295 19.7085C20.5 24.0069 20.5 28.0163 20.5 34.1192C20.5 40.2222 20.5 44.2314 21.4295 48.53C22.0193 51.2579 24.1836 53.3557 26.931 53.847C32.6626 54.8713 39.4998 54.8713 46.0406 54.8713C52.5815 54.8713 59.4187 54.8713 65.1502 53.847C67.8976 53.3557 70.0619 51.2579 70.6517 48.53C71.5811 44.2314 71.5811 40.2222 71.5811 34.1192C71.5811 28.0163 71.5811 24.0069 70.6517 19.7085C70.0619 16.9806 67.8976 14.8826 65.1502 14.3916C59.4187 13.3672 52.5815 13.3672 46.0406 13.3672Z" stroke="url(#paint1_linear_1300_26860)" stroke-width="3.32554" stroke-linecap="round" stroke-linejoin="round"/>
</g>
<path d="M20.5254 28.2695L43.2425 35.8532C45.0651 36.4617 47.0361 36.4617 48.8587 35.8532L71.5757 28.2695" stroke="#2370FF" stroke-width="3.32554" stroke-linecap="round" stroke-linejoin="round"/>
<defs>
<filter id="filter0_dddii_1300_26860" x="0.00102425" y="1.87362" width="92.08" height="82.5058" filterUnits="userSpaceOnUse" color-interpolation-filters="sRGB">
<feFlood flood-opacity="0" result="BackgroundImageFix"/>
<feColorMatrix in="SourceAlpha" type="matrix" values="0 0 0 0 0 0 0 0 0 0 0 0 0 0 0 0 0 0 127 0" result="hardAlpha"/>
<feOffset dy="1.1773"/>
<feGaussianBlur stdDeviation="1.1773"/>
<feComposite in2="hardAlpha" operator="out"/>
<feColorMatrix type="matrix" values="0 0 0 0 0.180924 0 0 0 0 0.356669 0 0 0 0 0.883903 0 0 0 0.24 0"/>
<feBlend mode="normal" in2="BackgroundImageFix" result="effect1_dropShadow_1300_26860"/>
<feColorMatrix in="SourceAlpha" type="matrix" values="0 0 0 0 0 0 0 0 0 0 0 0 0 0 0 0 0 0 127 0" result="hardAlpha"/>
<feOffset dy="9.00737"/>
<feGaussianBlur stdDeviation="9.41843"/>
<feComposite in2="hardAlpha" operator="out"/>
<feColorMatrix type="matrix" values="0 0 0 0 0.164706 0 0 0 0 0.521569 0 0 0 0 1 0 0 0 0.06 0"/>
<feBlend mode="normal" in2="effect1_dropShadow_1300_26860" result="effect2_dropShadow_1300_26860"/>
<feColorMatrix in="SourceAlpha" type="matrix" values="0 0 0 0 0 0 0 0 0 0 0 0 0 0 0 0 0 0 127 0" result="hardAlpha"/>
<feOffset dy="4.29582"/>
<feGaussianBlur stdDeviation="4.70922"/>
<feComposite in2="hardAlpha" operator="out"/>
<feColorMatrix type="matrix" values="0 0 0 0 0.0666667 0 0 0 0 0.137255 0 0 0 0 0.34902 0 0 0 0.05 0"/>
<feBlend mode="normal" in2="effect2_dropShadow_1300_26860" result="effect3_dropShadow_1300_26860"/>
<feBlend mode="normal" in="SourceGraphic" in2="effect3_dropShadow_1300_26860" result="shape"/>
<feColorMatrix in="SourceAlpha" type="matrix" values="0 0 0 0 0 0 0 0 0 0 0 0 0 0 0 0 0 0 127 0" result="hardAlpha"/>
<feOffset dy="4.70922"/>
<feGaussianBlur stdDeviation="1.1773"/>
<feComposite in2="hardAlpha" operator="arithmetic" k2="-1" k3="1"/>
<feColorMatrix type="matrix" values="0 0 0 0 1 0 0 0 0 1 0 0 0 0 1 0 0 0 0.7 0"/>
<feBlend mode="normal" in2="shape" result="effect4_innerShadow_1300_26860"/>
<feColorMatrix in="SourceAlpha" type="matrix" values="0 0 0 0 0 0 0 0 0 0 0 0 0 0 0 0 0 0 127 0" result="hardAlpha"/>
<feOffset dy="-2.35461"/>
<feGaussianBlur stdDeviation="1.1773"/>
<feComposite in2="hardAlpha" operator="arithmetic" k2="-1" k3="1"/>
<feColorMatrix type="matrix" values="0 0 0 0 0 0 0 0 0 0.159074 0 0 0 0 0.636296 0 0 0 0.44 0"/>
<feBlend mode="normal" in2="effect4_innerShadow_1300_26860" result="effect5_innerShadow_1300_26860"/>
</filter>
<linearGradient id="paint0_linear_1300_26860" x1="46.0405" y1="13.3672" x2="46.0405" y2="54.8713" gradientUnits="userSpaceOnUse">
<stop stop-color="#E9F1FF"/>
<stop offset="1" stop-color="#B2CDFF"/>
</linearGradient>
<linearGradient id="paint1_linear_1300_26860" x1="46.0405" y1="13.3672" x2="46.0405" y2="54.8713" gradientUnits="userSpaceOnUse">
<stop stop-color="#E9F1FF"/>
<stop offset="1" stop-color="#B2CDFF"/>
</linearGradient>
</defs>
</svg>
