<svg width="20" height="21" viewBox="0 0 20 21" fill="none" xmlns="http://www.w3.org/2000/svg">
<path d="M13.6498 10.9574C13.6498 11.1538 13.5712 11.324 13.4141 11.4681L7.87559 16.6137C7.74466 16.7447 7.58099 16.8069 7.38459 16.8003C7.18819 16.7938 7.02452 16.7185 6.89359 16.5745C6.76266 16.4304 6.70046 16.2602 6.70701 16.0638C6.71356 15.8674 6.78884 15.7037 6.93287 15.5728L11.9214 10.9574L6.93287 6.32237C6.78884 6.19144 6.71356 6.02777 6.70701 5.83137C6.70046 5.63497 6.76266 5.46476 6.89359 5.32073C7.02452 5.17671 7.18819 5.10469 7.38459 5.10469C7.58099 5.10469 7.74466 5.17016 7.87559 5.30109L13.4141 10.4468C13.5712 10.5646 13.6498 10.7348 13.6498 10.9574Z" fill="#000E41"/>
</svg>
