<svg width="38" height="32" viewBox="0 0 38 32" fill="none" xmlns="http://www.w3.org/2000/svg">
<path d="M15.5076 23.9141H23.0481" stroke="#2370FF" stroke-width="1.8" stroke-linecap="round" stroke-linejoin="round"/>
<path d="M19.2778 21.2383V23.9143" stroke="#2370FF" stroke-width="1.8" stroke-linecap="round" stroke-linejoin="round"/>
<g filter="url(#filter0_dddii_11186_200366)">
<path d="M12.2028 5.3577C10.1741 5.51871 8.51318 6.99677 8.36674 8.90506C8.15404 11.6762 8.15404 14.2696 8.36673 17.0407C8.51318 18.949 10.1741 20.4271 12.2028 20.588C16.7683 20.9505 21.2313 20.9505 25.7969 20.588C27.8256 20.4271 29.4865 18.949 29.633 17.0407C29.8456 14.2696 29.8456 11.6762 29.633 8.90505C29.4865 6.99677 27.8256 5.51871 25.7969 5.3577C21.2313 4.99535 16.7683 4.99535 12.2028 5.3577Z" fill="url(#paint0_linear_11186_200366)"/>
<path d="M12.2028 5.3577C10.1741 5.51871 8.51318 6.99677 8.36674 8.90506C8.15404 11.6762 8.15404 14.2696 8.36673 17.0407C8.51318 18.949 10.1741 20.4271 12.2028 20.588C16.7683 20.9505 21.2313 20.9505 25.7969 20.588C27.8256 20.4271 29.4865 18.949 29.633 17.0407C29.8456 14.2696 29.8456 11.6762 29.633 8.90505C29.4865 6.99677 27.8256 5.51871 25.7969 5.3577C21.2313 4.99535 16.7683 4.99535 12.2028 5.3577Z" stroke="url(#paint1_linear_11186_200366)" stroke-width="1.3" stroke-linecap="round" stroke-linejoin="round"/>
</g>
<defs>
<filter id="filter0_dddii_11186_200366" x="0.76049" y="0.888908" width="36.4785" height="30.6675" filterUnits="userSpaceOnUse" color-interpolation-filters="sRGB">
<feFlood flood-opacity="0" result="BackgroundImageFix"/>
<feColorMatrix in="SourceAlpha" type="matrix" values="0 0 0 0 0 0 0 0 0 0 0 0 0 0 0 0 0 0 127 0" result="hardAlpha"/>
<feOffset dy="0.42479"/>
<feGaussianBlur stdDeviation="0.42479"/>
<feComposite in2="hardAlpha" operator="out"/>
<feColorMatrix type="matrix" values="0 0 0 0 0.180924 0 0 0 0 0.356669 0 0 0 0 0.883903 0 0 0 0.24 0"/>
<feBlend mode="normal" in2="BackgroundImageFix" result="effect1_dropShadow_11186_200366"/>
<feColorMatrix in="SourceAlpha" type="matrix" values="0 0 0 0 0 0 0 0 0 0 0 0 0 0 0 0 0 0 127 0" result="hardAlpha"/>
<feOffset dy="3.25"/>
<feGaussianBlur stdDeviation="3.39832"/>
<feComposite in2="hardAlpha" operator="out"/>
<feColorMatrix type="matrix" values="0 0 0 0 0.164706 0 0 0 0 0.521569 0 0 0 0 1 0 0 0 0.06 0"/>
<feBlend mode="normal" in2="effect1_dropShadow_11186_200366" result="effect2_dropShadow_11186_200366"/>
<feColorMatrix in="SourceAlpha" type="matrix" values="0 0 0 0 0 0 0 0 0 0 0 0 0 0 0 0 0 0 127 0" result="hardAlpha"/>
<feOffset dy="1.55"/>
<feGaussianBlur stdDeviation="1.69916"/>
<feComposite in2="hardAlpha" operator="out"/>
<feColorMatrix type="matrix" values="0 0 0 0 0.0666667 0 0 0 0 0.137255 0 0 0 0 0.34902 0 0 0 0.05 0"/>
<feBlend mode="normal" in2="effect2_dropShadow_11186_200366" result="effect3_dropShadow_11186_200366"/>
<feBlend mode="normal" in="SourceGraphic" in2="effect3_dropShadow_11186_200366" result="shape"/>
<feColorMatrix in="SourceAlpha" type="matrix" values="0 0 0 0 0 0 0 0 0 0 0 0 0 0 0 0 0 0 127 0" result="hardAlpha"/>
<feOffset dy="1.69916"/>
<feGaussianBlur stdDeviation="0.42479"/>
<feComposite in2="hardAlpha" operator="arithmetic" k2="-1" k3="1"/>
<feColorMatrix type="matrix" values="0 0 0 0 1 0 0 0 0 1 0 0 0 0 1 0 0 0 0.7 0"/>
<feBlend mode="normal" in2="shape" result="effect4_innerShadow_11186_200366"/>
<feColorMatrix in="SourceAlpha" type="matrix" values="0 0 0 0 0 0 0 0 0 0 0 0 0 0 0 0 0 0 127 0" result="hardAlpha"/>
<feOffset dy="-0.84958"/>
<feGaussianBlur stdDeviation="0.42479"/>
<feComposite in2="hardAlpha" operator="arithmetic" k2="-1" k3="1"/>
<feColorMatrix type="matrix" values="0 0 0 0 0 0 0 0 0 0.159074 0 0 0 0 0.636296 0 0 0 0.44 0"/>
<feBlend mode="normal" in2="effect4_innerShadow_11186_200366" result="effect5_innerShadow_11186_200366"/>
</filter>
<linearGradient id="paint0_linear_11186_200366" x1="29.7925" y1="12.9729" x2="8.20721" y2="12.9729" gradientUnits="userSpaceOnUse">
<stop stop-color="#E9F1FF"/>
<stop offset="1" stop-color="#B2CDFF"/>
</linearGradient>
<linearGradient id="paint1_linear_11186_200366" x1="29.7925" y1="12.9729" x2="8.20721" y2="12.9729" gradientUnits="userSpaceOnUse">
<stop stop-color="#E9F1FF"/>
<stop offset="1" stop-color="#B2CDFF"/>
</linearGradient>
</defs>
</svg>
