<svg width="74" height="85" viewBox="0 0 74 85" fill="none" xmlns="http://www.w3.org/2000/svg">
<g filter="url(#filter0_dd_1_10244)">
<path d="M63.9697 63.3797C64.4382 55.9132 64.6846 48.176 64.6846 40.2479C64.6846 38.1849 64.6681 36.1348 64.6347 34.0991C64.5634 29.6823 63.1592 25.3656 60.4489 21.8777C56.3463 16.5991 52.6227 12.8698 46.9958 8.52707C45.1985 7.13991 42.993 6.38731 40.7233 6.33769C38.4472 6.28796 36.0705 6.2627 33.5315 6.2627C25.8455 6.2627 25.9565 6.49421 19.5404 6.93534C14.0821 7.31065 9.74713 11.6558 9.40439 17.1162C8.93579 24.5826 8.68945 32.3197 8.68945 40.2479C8.68945 48.176 8.93579 55.9132 9.40439 63.3797C9.74713 68.84 14.0821 73.185 19.5404 73.5605C25.9565 74.0018 25.8455 74.2328 33.5315 74.2328C41.2175 74.2328 47.4175 74.0017 53.8337 73.5605C59.2917 73.185 63.6271 68.84 63.9697 63.3797Z" fill="url(#paint0_linear_1_10244)"/>
<path d="M33.5312 5.5625C36.0748 5.5625 38.4568 5.58785 40.7383 5.6377C43.152 5.69046 45.5038 6.49081 47.4238 7.97266C53.0965 12.3508 56.8625 16.1222 61.002 21.4482C63.8126 25.0654 65.2613 29.5319 65.335 34.0879C65.3684 36.1275 65.3848 38.1814 65.3848 40.248C65.3848 48.1905 65.1373 55.9426 64.668 63.4238C64.303 69.2358 59.6886 73.8592 53.8818 74.2588C47.4495 74.7011 41.2331 74.9326 33.5312 74.9326C25.8136 74.9326 25.8829 74.6983 19.4922 74.2588C13.6851 73.8592 9.07102 69.2358 8.70605 63.4238C8.23653 55.9426 7.98926 48.1905 7.98926 40.248C7.98926 32.3054 8.23653 24.5534 8.70605 17.0723C9.07093 11.2602 13.6851 6.63669 19.4922 6.2373C25.8828 5.79793 25.8136 5.5625 33.5312 5.5625Z" stroke="url(#paint1_linear_1_10244)" stroke-width="1.4"/>
</g>
<path d="M46.5254 7.48438V21.0725C46.5254 23.4137 48.4206 25.2187 50.7608 25.2864C56.6479 25.4564 65.3088 27.0438 65.3088 37.6181" stroke="#74D184" stroke-width="1.4" stroke-linecap="round" stroke-linejoin="round"/>
<g filter="url(#filter1_dd_1_10244)">
<circle cx="36.7774" cy="42.7411" r="11.4999" transform="rotate(90 36.7774 42.7411)" fill="url(#paint2_linear_1_10244)"/>
<circle cx="36.7774" cy="42.7411" r="12.1999" transform="rotate(90 36.7774 42.7411)" stroke="url(#paint3_linear_1_10244)" stroke-width="1.4"/>
</g>
<path d="M36.7773 47.5703L36.7773 36.8949" stroke="url(#paint4_linear_1_10244)" stroke-width="1.4" stroke-linecap="round" stroke-linejoin="round"/>
<path d="M42.1151 42.2298C40.7806 44.8987 39.4462 46.2331 36.7774 47.5675C34.1085 46.2331 32.774 44.8987 31.4397 42.2298" stroke="url(#paint5_linear_1_10244)" stroke-width="1.4" stroke-linecap="round" stroke-linejoin="round"/>
<defs>
<filter id="filter0_dd_1_10244" x="0.340259" y="0.229769" width="72.6925" height="84.6681" filterUnits="userSpaceOnUse" color-interpolation-filters="sRGB">
<feFlood flood-opacity="0" result="BackgroundImageFix"/>
<feColorMatrix in="SourceAlpha" type="matrix" values="0 0 0 0 0 0 0 0 0 0 0 0 0 0 0 0 0 0 127 0" result="hardAlpha"/>
<feOffset dy="0.579067"/>
<feGaussianBlur stdDeviation="0.579067"/>
<feComposite in2="hardAlpha" operator="out"/>
<feColorMatrix type="matrix" values="0 0 0 0 0.454902 0 0 0 0 0.819608 0 0 0 0 0.517647 0 0 0 0.17 0"/>
<feBlend mode="normal" in2="BackgroundImageFix" result="effect1_dropShadow_1_10244"/>
<feColorMatrix in="SourceAlpha" type="matrix" values="0 0 0 0 0 0 0 0 0 0 0 0 0 0 0 0 0 0 127 0" result="hardAlpha"/>
<feOffset dy="2.31627"/>
<feGaussianBlur stdDeviation="3.4744"/>
<feComposite in2="hardAlpha" operator="out"/>
<feColorMatrix type="matrix" values="0 0 0 0 0.454902 0 0 0 0 0.819608 0 0 0 0 0.517647 0 0 0 0.43 0"/>
<feBlend mode="normal" in2="effect1_dropShadow_1_10244" result="effect2_dropShadow_1_10244"/>
<feBlend mode="normal" in="SourceGraphic" in2="effect2_dropShadow_1_10244" result="shape"/>
</filter>
<filter id="filter1_dd_1_10244" x="16.9281" y="25.2083" width="39.6984" height="39.6974" filterUnits="userSpaceOnUse" color-interpolation-filters="sRGB">
<feFlood flood-opacity="0" result="BackgroundImageFix"/>
<feColorMatrix in="SourceAlpha" type="matrix" values="0 0 0 0 0 0 0 0 0 0 0 0 0 0 0 0 0 0 127 0" result="hardAlpha"/>
<feOffset dy="0.579067"/>
<feGaussianBlur stdDeviation="0.579067"/>
<feComposite in2="hardAlpha" operator="out"/>
<feColorMatrix type="matrix" values="0 0 0 0 0.454902 0 0 0 0 0.819608 0 0 0 0 0.517647 0 0 0 0.17 0"/>
<feBlend mode="normal" in2="BackgroundImageFix" result="effect1_dropShadow_1_10244"/>
<feColorMatrix in="SourceAlpha" type="matrix" values="0 0 0 0 0 0 0 0 0 0 0 0 0 0 0 0 0 0 127 0" result="hardAlpha"/>
<feOffset dy="2.31627"/>
<feGaussianBlur stdDeviation="3.4744"/>
<feComposite in2="hardAlpha" operator="out"/>
<feColorMatrix type="matrix" values="0 0 0 0 0.454902 0 0 0 0 0.819608 0 0 0 0 0.517647 0 0 0 0.43 0"/>
<feBlend mode="normal" in2="effect1_dropShadow_1_10244" result="effect2_dropShadow_1_10244"/>
<feBlend mode="normal" in="SourceGraphic" in2="effect2_dropShadow_1_10244" result="shape"/>
</filter>
<linearGradient id="paint0_linear_1_10244" x1="28.802" y1="6.26269" x2="51.7746" y2="149.891" gradientUnits="userSpaceOnUse">
<stop stop-color="white"/>
<stop offset="1" stop-color="#EEF9F5"/>
</linearGradient>
<linearGradient id="paint1_linear_1_10244" x1="-52.37" y1="36.2237" x2="66.2135" y2="36.9527" gradientUnits="userSpaceOnUse">
<stop stop-color="#ADECBB"/>
<stop offset="1" stop-color="#74D184"/>
</linearGradient>
<linearGradient id="paint2_linear_1_10244" x1="36.7774" y1="31.2412" x2="36.7774" y2="54.241" gradientUnits="userSpaceOnUse">
<stop stop-color="#E2FBEA"/>
<stop offset="1" stop-color="#EEF9F5"/>
</linearGradient>
<linearGradient id="paint3_linear_1_10244" x1="0.197537" y1="41.3795" x2="48.9045" y2="41.7429" gradientUnits="userSpaceOnUse">
<stop stop-color="#ADECBB"/>
<stop offset="1" stop-color="#74D184"/>
</linearGradient>
<linearGradient id="paint4_linear_1_10244" x1="36.1056" y1="31.1862" x2="36.7773" y2="47.5703" gradientUnits="userSpaceOnUse">
<stop stop-color="#ADECBB"/>
<stop offset="1" stop-color="#74D184"/>
</linearGradient>
<linearGradient id="paint5_linear_1_10244" x1="36.7774" y1="29.4095" x2="36.7774" y2="48.5684" gradientUnits="userSpaceOnUse">
<stop stop-color="#ADECBB"/>
<stop offset="1" stop-color="#74D184"/>
</linearGradient>
</defs>
</svg>
