<svg width="17" height="17" viewBox="0 0 17 17" fill="none" xmlns="http://www.w3.org/2000/svg">
<path fill-rule="evenodd" clip-rule="evenodd" d="M13.8585 0C12.4179 0 11.2496 1.16731 11.2496 2.60771C11.2496 4.0481 12.4179 5.21541 13.8585 5.21541C15.2992 5.21541 16.4674 4.0481 16.4674 2.60771C16.4674 1.16731 15.2992 0 13.8585 0ZM12.0496 2.60771C12.0496 1.60954 12.8593 0.8 13.8585 0.8C14.8577 0.8 15.6674 1.60954 15.6674 2.60771C15.6674 3.60587 14.8577 4.41541 13.8585 4.41541C12.8593 4.41541 12.0496 3.60588 12.0496 2.60771Z" fill="#2370FF"/>
<path fill-rule="evenodd" clip-rule="evenodd" d="M13.8585 5.79227C12.4179 5.79227 11.2496 6.95957 11.2496 8.4C11.2496 9.84038 12.4179 11.0077 13.8585 11.0077C15.2992 11.0077 16.4674 9.84039 16.4674 8.4C16.4674 6.95956 15.2992 5.79227 13.8585 5.79227ZM12.0496 8.4C12.0496 7.40179 12.8593 6.59227 13.8585 6.59227C14.8577 6.59227 15.6674 7.40179 15.6674 8.4C15.6674 9.39815 14.8577 10.2077 13.8585 10.2077C12.8593 10.2077 12.0496 9.39815 12.0496 8.4Z" fill="#2370FF"/>
<path fill-rule="evenodd" clip-rule="evenodd" d="M11.2496 14.1923C11.2496 12.7519 12.4179 11.5846 13.8585 11.5846C15.2992 11.5846 16.4674 12.7519 16.4674 14.1923C16.4674 15.6327 15.2992 16.8 13.8585 16.8C12.4179 16.8 11.2496 15.6327 11.2496 14.1923ZM13.8585 12.3846C12.8593 12.3846 12.0496 13.1941 12.0496 14.1923C12.0496 15.1904 12.8593 16 13.8585 16C14.8577 16 15.6674 15.1904 15.6674 14.1923C15.6674 13.1941 14.8577 12.3846 13.8585 12.3846Z" fill="#2370FF"/>
<path fill-rule="evenodd" clip-rule="evenodd" d="M8.2337 5.79227C6.79308 5.79227 5.62485 6.95957 5.62485 8.4C5.62485 9.84038 6.79308 11.0077 8.2337 11.0077C9.67436 11.0077 10.8426 9.84039 10.8426 8.4C10.8426 6.95956 9.67436 5.79227 8.2337 5.79227ZM6.42485 8.4C6.42485 7.40179 7.23451 6.59227 8.2337 6.59227C9.23294 6.59227 10.0426 7.40179 10.0426 8.4C10.0426 9.39815 9.23294 10.2077 8.2337 10.2077C7.23451 10.2077 6.42485 9.39815 6.42485 8.4Z" fill="#2370FF"/>
<path fill-rule="evenodd" clip-rule="evenodd" d="M5.62485 14.1922C5.62485 12.7519 6.79308 11.5845 8.2337 11.5845C9.67436 11.5845 10.8426 12.7519 10.8426 14.1922C10.8426 15.6327 9.67436 16.7999 8.2337 16.7999C6.79308 16.7999 5.62485 15.6327 5.62485 14.1922ZM8.2337 12.3845C7.23452 12.3845 6.42485 13.1941 6.42485 14.1922C6.42485 15.1904 7.23451 15.9999 8.2337 15.9999C9.23294 15.9999 10.0426 15.1904 10.0426 14.1922C10.0426 13.1941 9.23293 12.3845 8.2337 12.3845Z" fill="#2370FF"/>
<path fill-rule="evenodd" clip-rule="evenodd" d="M2.60888 11.5845C1.16823 11.5845 0 12.7518 0 14.1923C0 15.6327 1.16824 16.7999 2.60888 16.7999C4.04951 16.7999 5.21775 15.6327 5.21775 14.1923C5.21775 12.7518 4.04952 11.5845 2.60888 11.5845ZM0.8 14.1923C0.8 13.1941 1.60966 12.3845 2.60888 12.3845C3.60809 12.3845 4.41775 13.1941 4.41775 14.1923C4.41775 15.1904 3.60809 15.9999 2.60888 15.9999C1.60966 15.9999 0.8 15.1904 0.8 14.1923Z" fill="#2370FF"/>
</svg>
