<svg width="76" height="19" viewBox="0 0 76 19" fill="none" xmlns="http://www.w3.org/2000/svg">
<path opacity="0.1" fill-rule="evenodd" clip-rule="evenodd" d="M0.543213 12.6937C0.543213 12.6937 3.48236 12.263 6.82401 13.2976C13.1796 15.2653 13.5422 11.662 15.8989 9.92454C18.055 8.33498 19.8407 9.30483 22.2414 11.2487C24.0121 12.6825 26.5925 15.0891 29.2649 14.7017C31.7077 14.3475 33.4394 11.5248 36.8254 10.807C39.509 10.238 41.6899 11.8011 44.7801 11.2487C48.9722 10.4994 50.8447 6.08825 53.8408 6.08825C57.5386 6.08825 60.1421 2.35742 63.5062 2.35742C66.8503 2.35742 67.3042 4.55124 70.9623 6.08825C73.759 7.26331 75.1046 6.08825 75.1046 6.08825V18.6798H0.543213V12.6937Z" fill="url(#paint0_linear_685_10279)"/>
<path d="M0.543213 10.7385C0.543213 10.7385 3.48236 10.3141 6.82401 11.3337C13.1796 13.2729 13.5422 9.72173 15.8989 8.00944C18.055 6.44288 19.8407 7.3987 22.2414 9.31447C24.0121 10.7274 26.5925 13.0992 29.2649 12.7174C31.7077 12.3684 33.4394 9.58657 36.8254 8.87911C39.509 8.31841 41.6899 9.85882 44.7801 9.31447C48.9722 8.57602 50.8447 4.22868 53.8408 4.22868C57.5386 4.22868 60.1421 0.542969 63.5062 0.542969C66.8503 0.542969 67.028 2.71392 70.6862 4.22868C73.4828 5.38673 75.1046 4.22868 75.1046 4.22868" stroke="#2370FF" stroke-width="1.0861" stroke-linecap="round" stroke-linejoin="round"/>
<defs>
<linearGradient id="paint0_linear_685_10279" x1="14.0184" y1="10.6395" x2="14.0184" y2="18.6798" gradientUnits="userSpaceOnUse">
<stop stop-color="#2A85FF"/>
<stop offset="1" stop-color="white" stop-opacity="0.01"/>
</linearGradient>
</defs>
</svg>
