<svg width="246" height="109" viewBox="0 0 246 109" fill="none" xmlns="http://www.w3.org/2000/svg">
<path d="M70.8018 61.1293V44.9374C70.8018 42.0967 73.1454 39.7531 76.0571 39.7531C78.8978 39.7531 81.1704 42.0967 81.1704 44.9374V61.2004C81.1704 65.6034 84.0821 68.6572 88.1301 68.6572C92.2491 68.6572 95.0898 65.6034 95.0898 61.2004V44.9374C95.0898 42.0967 97.4333 39.7531 100.274 39.7531C103.186 39.7531 105.458 42.0967 105.458 44.9374V61.1293C105.458 70.9297 98.3566 77.8184 88.1301 77.8184C77.9746 77.8184 70.8018 70.9297 70.8018 61.1293Z" fill="url(#paint0_linear_10_24722)"/>
<path d="M117.094 38.4609C119.829 38.4611 122.143 40.5541 122.144 43.0908C122.144 43.0908 122.144 45.5872 122.144 49.0605C122.155 49.1199 122.163 49.1806 122.163 49.2422V73.1006C122.163 75.3461 119.84 77.1991 116.953 77.1992C114.208 77.1992 111.884 75.3461 111.884 73.1006V49.2422C111.884 49.1789 111.892 49.1166 111.903 49.0557V43.0908C111.904 40.554 114.218 38.4609 117.094 38.4609ZM117.094 24.5713C120.32 24.5714 122.985 26.981 122.985 29.8984C122.985 32.8159 120.32 35.2264 117.094 35.2266C113.727 35.2266 111.062 32.816 111.062 29.8984C111.062 26.9809 113.727 24.5713 117.094 24.5713Z" fill="url(#paint1_linear_10_24722)"/>
<path d="M179.179 38.4609C181.914 38.4611 184.228 40.554 184.229 43.0908C184.229 43.0908 184.229 45.5872 184.229 49.0605C184.24 49.1199 184.248 49.1806 184.248 49.2422V73.1006C184.248 75.3461 181.925 77.1991 179.038 77.1992C176.292 77.1992 173.969 75.3461 173.969 73.1006V49.2422C173.969 49.1799 173.977 49.1186 173.988 49.0586V43.0908C173.989 40.554 176.303 38.4609 179.179 38.4609ZM179.179 24.5713C182.405 24.5714 185.07 26.981 185.07 29.8984C185.07 32.816 182.405 35.2264 179.179 35.2266C175.812 35.2266 173.146 32.816 173.146 29.8984C173.147 26.9809 175.812 24.5713 179.179 24.5713Z" fill="url(#paint2_linear_10_24722)"/>
<path d="M148.148 68.9263C153.332 68.9263 157.096 64.9493 157.096 59.0549C157.096 53.3025 153.332 49.3255 148.148 49.3255C142.821 49.3255 139.058 53.3025 139.058 59.0549C139.058 64.9493 142.821 68.9263 148.148 68.9263ZM167.251 31.1451V59.0549C167.251 70.2756 159.368 78.1585 148.148 78.1585C136.856 78.1585 128.902 70.2756 128.902 59.0549C128.902 47.9762 136.004 40.0932 146.017 40.0932C150.349 40.0932 154.042 41.5136 156.883 44.1412V31.1451C156.883 28.3044 159.226 25.9608 161.996 25.9608C164.908 25.9608 167.251 28.3044 167.251 31.1451Z" fill="url(#paint3_linear_10_24722)"/>
<path d="M222.518 48.3312L213.357 58.9128L222.447 69.3524C224.294 71.4829 223.939 74.6077 221.879 76.3831C220.885 77.1643 219.749 77.5904 218.612 77.5904C217.263 77.5904 215.843 76.9512 214.848 75.8149L206.752 66.5117L198.657 75.8149C197.591 76.9512 196.242 77.5904 194.822 77.5904C193.685 77.5904 192.549 77.1643 191.555 76.3831C189.495 74.6077 189.14 71.4829 191.058 69.3524L200.148 58.9128L190.916 48.3312C189.14 46.3428 189.495 43.218 191.626 41.3715C192.549 40.5904 193.685 40.2353 194.751 40.2353C196.171 40.2353 197.591 40.8034 198.586 41.9397L206.752 51.314L214.848 41.9397C215.843 40.8034 217.263 40.2353 218.683 40.2353C219.82 40.2353 220.956 40.5904 221.879 41.3715C223.939 43.218 224.294 46.3428 222.518 48.3312Z" fill="url(#paint4_linear_10_24722)"/>
<path d="M31.3701 76.376C33.5011 76.376 35.1625 78.1648 35.9609 80.1406C36.4615 81.3792 37.2089 82.5175 38.1719 83.4805C40.0561 85.3647 42.6117 86.4238 45.2764 86.4238C47.9411 86.4238 50.4966 85.3647 52.3809 83.4805C53.3438 82.5175 54.0912 81.3793 54.5918 80.1406C55.3653 78.2265 56.9487 76.4876 58.9844 76.3809L59.1826 76.376H60.3311C62.462 76.376 64.2295 78.1212 63.7979 80.208L63.6465 80.8779C62.8301 84.2088 61.1156 87.2848 58.6504 89.75L58.3135 90.0781C54.802 93.4194 50.1355 95.2891 45.2764 95.2891C40.4173 95.289 35.7507 93.4194 32.2393 90.0781L31.9023 89.75C29.4372 87.2848 27.7226 84.2088 26.9062 80.8779L26.7559 80.208C26.3241 78.1213 28.0908 76.3761 30.2217 76.376H31.3701ZM45.2764 36.4941C55.7217 36.4942 64.1893 44.9619 64.1895 55.4072C64.1895 65.8527 55.7218 74.3203 45.2764 74.3203C34.8309 74.3202 26.3633 65.8526 26.3633 55.4072C26.3634 44.9619 34.831 36.4942 45.2764 36.4941ZM45.2764 44.9834C39.5193 44.9835 34.8527 49.6502 34.8525 55.4072C34.8525 61.1643 39.5192 65.832 45.2764 65.832C51.0335 65.832 55.7012 61.1644 55.7012 55.4072C55.701 49.6502 51.0334 44.9834 45.2764 44.9834Z" fill="url(#paint5_linear_10_24722)"/>
<defs>
<linearGradient id="paint0_linear_10_24722" x1="88.3901" y1="28.6821" x2="88.3901" y2="82.6821" gradientUnits="userSpaceOnUse">
<stop stop-color="#5293DA"/>
<stop offset="1" stop-color="#637BE1"/>
</linearGradient>
<linearGradient id="paint1_linear_10_24722" x1="117.024" y1="24.5713" x2="117.024" y2="77.1992" gradientUnits="userSpaceOnUse">
<stop stop-color="#5293DA"/>
<stop offset="1" stop-color="#637BE1"/>
</linearGradient>
<linearGradient id="paint2_linear_10_24722" x1="179.108" y1="24.5713" x2="179.108" y2="77.1992" gradientUnits="userSpaceOnUse">
<stop stop-color="#5293DA"/>
<stop offset="1" stop-color="#637BE1"/>
</linearGradient>
<linearGradient id="paint3_linear_10_24722" x1="148.274" y1="29.0933" x2="148.274" y2="83.0933" gradientUnits="userSpaceOnUse">
<stop stop-color="#5293DA"/>
<stop offset="1" stop-color="#637BE1"/>
</linearGradient>
<linearGradient id="paint4_linear_10_24722" x1="206.859" y1="29.0933" x2="206.859" y2="83.0933" gradientUnits="userSpaceOnUse">
<stop stop-color="#5293DA"/>
<stop offset="1" stop-color="#637BE1"/>
</linearGradient>
<linearGradient id="paint5_linear_10_24722" x1="45.2764" y1="36.4941" x2="45.2764" y2="95.2891" gradientUnits="userSpaceOnUse">
<stop stop-color="#5293DA"/>
<stop offset="1" stop-color="#637BE1"/>
</linearGradient>
</defs>
</svg>
