<svg width="22" height="23" viewBox="0 0 22 23" fill="none" xmlns="http://www.w3.org/2000/svg">
<path fill-rule="evenodd" clip-rule="evenodd" d="M10.7062 8.99985C9.14909 8.99985 7.86137 10.2292 7.86137 11.7766V15.761C7.86137 16.0371 8.08523 16.261 8.36137 16.261H13.6372C13.9134 16.261 14.1372 16.0371 14.1372 15.761V11.7766C14.1372 10.2292 12.8496 8.99985 11.2924 8.99985H10.7062ZM8.86137 11.7766C8.86137 10.8091 9.67338 9.99985 10.7062 9.99985H11.2924C12.3253 9.99985 13.1372 10.8091 13.1372 11.7766V15.261H8.86137V11.7766Z" fill="#2370FF"/>
<path fill-rule="evenodd" clip-rule="evenodd" d="M4.84483 18.9998H17.1552C18.4502 18.9998 19.5 17.9501 19.5 16.655V9.19591C19.5 8.36067 19.0894 7.57879 18.4019 7.1046L12.4423 2.99453C11.574 2.3957 10.426 2.39571 9.55769 2.99453L3.59813 7.1046C2.91056 7.5788 2.5 8.36067 2.5 9.1959V16.655C2.5 17.9501 3.54983 18.9998 4.84483 18.9998ZM17.1552 17.9998H4.84483C4.1021 17.9998 3.5 17.3978 3.5 16.655V9.1959C3.5 8.68945 3.74895 8.21535 4.16587 7.92781L10.1254 3.81774C10.6519 3.45463 11.348 3.45463 11.8745 3.81774L17.8341 7.92781C18.2511 8.21535 18.5 8.68945 18.5 9.19591V16.655C18.5 17.3978 17.8979 17.9998 17.1552 17.9998Z" fill="#2370FF"/>
</svg>
