<svg width="36" height="36" viewBox="0 0 36 36" fill="none" xmlns="http://www.w3.org/2000/svg">
<path d="M12.4275 10.7402V16.3026C12.4275 21.7756 14.6664 22.6812 17.2039 22.6812" stroke="#2370FF" stroke-width="1.71" stroke-linecap="round" stroke-linejoin="round"/>
<path d="M12.4275 14.7207H17.2039" stroke="#2370FF" stroke-width="1.71" stroke-linecap="round" stroke-linejoin="round"/>
<g filter="url(#filter0_dddii_11133_29457)">
<path d="M12.6454 4.36133C11.6338 4.36133 10.6783 4.39906 9.81722 4.48748C8.91557 4.58006 8.06504 5.11787 7.82337 5.99144C7.70717 6.41148 7.65112 6.8901 7.65112 7.54563C7.65112 8.20118 7.70717 8.67979 7.82337 9.09983C8.06504 9.97341 8.91557 10.5112 9.81722 10.6038C10.6783 10.6922 11.6338 10.7299 12.6454 10.7299C13.657 10.7299 14.6124 10.6922 15.4735 10.6038C16.3751 10.5112 17.2257 9.97336 17.4673 9.0998C17.5835 8.67975 17.6396 8.20113 17.6396 7.5456C17.6396 6.8901 17.5836 6.4115 17.4674 5.99148C17.2258 5.11788 16.3753 4.58006 15.4737 4.48748C14.6125 4.39906 13.657 4.36133 12.6454 4.36133Z" fill="url(#paint0_linear_11133_29457)"/>
<path d="M12.6454 4.36133C11.6338 4.36133 10.6783 4.39906 9.81722 4.48748C8.91557 4.58006 8.06504 5.11787 7.82337 5.99144C7.70717 6.41148 7.65112 6.8901 7.65112 7.54563C7.65112 8.20118 7.70717 8.67979 7.82337 9.09983C8.06504 9.97341 8.91557 10.5112 9.81722 10.6038C10.6783 10.6922 11.6338 10.7299 12.6454 10.7299C13.657 10.7299 14.6124 10.6922 15.4735 10.6038C16.3751 10.5112 17.2257 9.97336 17.4673 9.0998C17.5835 8.67975 17.6396 8.20113 17.6396 7.5456C17.6396 6.8901 17.5836 6.4115 17.4674 5.99148C17.2258 5.11788 16.3753 4.58006 15.4737 4.48748C14.6125 4.39906 13.657 4.36133 12.6454 4.36133Z" stroke="url(#paint1_linear_11133_29457)" stroke-width="1.36925" stroke-linecap="round" stroke-linejoin="round"/>
</g>
<g filter="url(#filter1_dddii_11133_29457)">
<path d="M22.7768 12.2656C21.5044 12.2656 20.3117 12.3026 19.2597 12.3908C18.4783 12.4563 17.6742 12.8105 17.389 13.5409C17.2643 13.8604 17.2041 14.225 17.2041 14.7209C17.2041 15.2168 17.2643 15.5815 17.389 15.9009C17.6742 16.6313 18.4783 16.9855 19.2597 17.051C20.3117 17.1392 21.5044 17.1762 22.7766 17.1762C24.0489 17.1762 25.2416 17.1392 26.2935 17.051C27.0749 16.9855 27.8789 16.6313 28.1641 15.9009C28.2889 15.5814 28.3491 15.2168 28.3491 14.7209C28.3491 14.225 28.2889 13.8604 28.1643 13.541C27.8793 12.8105 27.0751 12.4563 26.2938 12.3908C25.2417 12.3026 24.0489 12.2656 22.7768 12.2656Z" fill="url(#paint2_linear_11133_29457)"/>
<path d="M22.7768 12.2656C21.5044 12.2656 20.3117 12.3026 19.2597 12.3908C18.4783 12.4563 17.6742 12.8105 17.389 13.5409C17.2643 13.8604 17.2041 14.225 17.2041 14.7209C17.2041 15.2168 17.2643 15.5815 17.389 15.9009C17.6742 16.6313 18.4783 16.9855 19.2597 17.051C20.3117 17.1392 21.5044 17.1762 22.7766 17.1762C24.0489 17.1762 25.2416 17.1392 26.2935 17.051C27.0749 16.9855 27.8789 16.6313 28.1641 15.9009C28.2889 15.5814 28.3491 15.2168 28.3491 14.7209C28.3491 14.225 28.2889 13.8604 28.1643 13.541C27.8793 12.8105 27.0751 12.4563 26.2938 12.3908C25.2417 12.3026 24.0489 12.2656 22.7768 12.2656Z" stroke="url(#paint3_linear_11133_29457)" stroke-width="1.36925" stroke-linecap="round" stroke-linejoin="round"/>
</g>
<g filter="url(#filter2_dddii_11133_29457)">
<path d="M22.7768 20.1484C21.5044 20.1484 20.3117 20.1854 19.2597 20.2736C18.4783 20.3392 17.6742 20.6933 17.389 21.4237C17.2643 21.7431 17.2041 22.1077 17.2041 22.6037C17.2041 23.0996 17.2643 23.4642 17.389 23.7836C17.6742 24.5141 18.4783 24.8682 19.2597 24.9338C20.3117 25.022 21.5044 25.0589 22.7766 25.0589C24.0489 25.0589 25.2416 25.022 26.2935 24.9338C27.0749 24.8682 27.8789 24.5141 28.1641 23.7836C28.2889 23.4642 28.3491 23.0996 28.3491 22.6037C28.3491 22.1077 28.2889 21.7431 28.1643 21.4237C27.8793 20.6933 27.0751 20.3392 26.2938 20.2736C25.2417 20.1854 24.0489 20.1484 22.7768 20.1484Z" fill="url(#paint4_linear_11133_29457)"/>
<path d="M22.7768 20.1484C21.5044 20.1484 20.3117 20.1854 19.2597 20.2736C18.4783 20.3392 17.6742 20.6933 17.389 21.4237C17.2643 21.7431 17.2041 22.1077 17.2041 22.6037C17.2041 23.0996 17.2643 23.4642 17.389 23.7836C17.6742 24.5141 18.4783 24.8682 19.2597 24.9338C20.3117 25.022 21.5044 25.0589 22.7766 25.0589C24.0489 25.0589 25.2416 25.022 26.2935 24.9338C27.0749 24.8682 27.8789 24.5141 28.1641 23.7836C28.2889 23.4642 28.3491 23.0996 28.3491 22.6037C28.3491 22.1077 28.2889 21.7431 28.1643 21.4237C27.8793 20.6933 27.0751 20.3392 26.2938 20.2736C25.2417 20.1854 24.0489 20.1484 22.7768 20.1484Z" stroke="url(#paint5_linear_11133_29457)" stroke-width="1.36925" stroke-linecap="round" stroke-linejoin="round"/>
</g>
<defs>
<filter id="filter0_dddii_11133_29457" x="0.169914" y="0.130119" width="24.9509" height="21.3306" filterUnits="userSpaceOnUse" color-interpolation-filters="sRGB">
<feFlood flood-opacity="0" result="BackgroundImageFix"/>
<feColorMatrix in="SourceAlpha" type="matrix" values="0 0 0 0 0 0 0 0 0 0 0 0 0 0 0 0 0 0 127 0" result="hardAlpha"/>
<feOffset dy="0.42479"/>
<feGaussianBlur stdDeviation="0.42479"/>
<feComposite in2="hardAlpha" operator="out"/>
<feColorMatrix type="matrix" values="0 0 0 0 0.180924 0 0 0 0 0.356669 0 0 0 0 0.883903 0 0 0 0.24 0"/>
<feBlend mode="normal" in2="BackgroundImageFix" result="effect1_dropShadow_11133_29457"/>
<feColorMatrix in="SourceAlpha" type="matrix" values="0 0 0 0 0 0 0 0 0 0 0 0 0 0 0 0 0 0 127 0" result="hardAlpha"/>
<feOffset dy="3.25"/>
<feGaussianBlur stdDeviation="3.39832"/>
<feComposite in2="hardAlpha" operator="out"/>
<feColorMatrix type="matrix" values="0 0 0 0 0.164706 0 0 0 0 0.521569 0 0 0 0 1 0 0 0 0.06 0"/>
<feBlend mode="normal" in2="effect1_dropShadow_11133_29457" result="effect2_dropShadow_11133_29457"/>
<feColorMatrix in="SourceAlpha" type="matrix" values="0 0 0 0 0 0 0 0 0 0 0 0 0 0 0 0 0 0 127 0" result="hardAlpha"/>
<feOffset dy="1.55"/>
<feGaussianBlur stdDeviation="1.69916"/>
<feComposite in2="hardAlpha" operator="out"/>
<feColorMatrix type="matrix" values="0 0 0 0 0.0666667 0 0 0 0 0.137255 0 0 0 0 0.34902 0 0 0 0.05 0"/>
<feBlend mode="normal" in2="effect2_dropShadow_11133_29457" result="effect3_dropShadow_11133_29457"/>
<feBlend mode="normal" in="SourceGraphic" in2="effect3_dropShadow_11133_29457" result="shape"/>
<feColorMatrix in="SourceAlpha" type="matrix" values="0 0 0 0 0 0 0 0 0 0 0 0 0 0 0 0 0 0 127 0" result="hardAlpha"/>
<feOffset dy="1.69916"/>
<feGaussianBlur stdDeviation="0.42479"/>
<feComposite in2="hardAlpha" operator="arithmetic" k2="-1" k3="1"/>
<feColorMatrix type="matrix" values="0 0 0 0 1 0 0 0 0 1 0 0 0 0 1 0 0 0 0.7 0"/>
<feBlend mode="normal" in2="shape" result="effect4_innerShadow_11133_29457"/>
<feColorMatrix in="SourceAlpha" type="matrix" values="0 0 0 0 0 0 0 0 0 0 0 0 0 0 0 0 0 0 127 0" result="hardAlpha"/>
<feOffset dy="-0.84958"/>
<feGaussianBlur stdDeviation="0.42479"/>
<feComposite in2="hardAlpha" operator="arithmetic" k2="-1" k3="1"/>
<feColorMatrix type="matrix" values="0 0 0 0 0 0 0 0 0 0.159074 0 0 0 0 0.636296 0 0 0 0.44 0"/>
<feBlend mode="normal" in2="effect4_innerShadow_11133_29457" result="effect5_innerShadow_11133_29457"/>
</filter>
<filter id="filter1_dddii_11133_29457" x="9.72289" y="8.03442" width="26.1074" height="19.8726" filterUnits="userSpaceOnUse" color-interpolation-filters="sRGB">
<feFlood flood-opacity="0" result="BackgroundImageFix"/>
<feColorMatrix in="SourceAlpha" type="matrix" values="0 0 0 0 0 0 0 0 0 0 0 0 0 0 0 0 0 0 127 0" result="hardAlpha"/>
<feOffset dy="0.42479"/>
<feGaussianBlur stdDeviation="0.42479"/>
<feComposite in2="hardAlpha" operator="out"/>
<feColorMatrix type="matrix" values="0 0 0 0 0.180924 0 0 0 0 0.356669 0 0 0 0 0.883903 0 0 0 0.24 0"/>
<feBlend mode="normal" in2="BackgroundImageFix" result="effect1_dropShadow_11133_29457"/>
<feColorMatrix in="SourceAlpha" type="matrix" values="0 0 0 0 0 0 0 0 0 0 0 0 0 0 0 0 0 0 127 0" result="hardAlpha"/>
<feOffset dy="3.25"/>
<feGaussianBlur stdDeviation="3.39832"/>
<feComposite in2="hardAlpha" operator="out"/>
<feColorMatrix type="matrix" values="0 0 0 0 0.164706 0 0 0 0 0.521569 0 0 0 0 1 0 0 0 0.06 0"/>
<feBlend mode="normal" in2="effect1_dropShadow_11133_29457" result="effect2_dropShadow_11133_29457"/>
<feColorMatrix in="SourceAlpha" type="matrix" values="0 0 0 0 0 0 0 0 0 0 0 0 0 0 0 0 0 0 127 0" result="hardAlpha"/>
<feOffset dy="1.55"/>
<feGaussianBlur stdDeviation="1.69916"/>
<feComposite in2="hardAlpha" operator="out"/>
<feColorMatrix type="matrix" values="0 0 0 0 0.0666667 0 0 0 0 0.137255 0 0 0 0 0.34902 0 0 0 0.05 0"/>
<feBlend mode="normal" in2="effect2_dropShadow_11133_29457" result="effect3_dropShadow_11133_29457"/>
<feBlend mode="normal" in="SourceGraphic" in2="effect3_dropShadow_11133_29457" result="shape"/>
<feColorMatrix in="SourceAlpha" type="matrix" values="0 0 0 0 0 0 0 0 0 0 0 0 0 0 0 0 0 0 127 0" result="hardAlpha"/>
<feOffset dy="1.69916"/>
<feGaussianBlur stdDeviation="0.42479"/>
<feComposite in2="hardAlpha" operator="arithmetic" k2="-1" k3="1"/>
<feColorMatrix type="matrix" values="0 0 0 0 1 0 0 0 0 1 0 0 0 0 1 0 0 0 0.7 0"/>
<feBlend mode="normal" in2="shape" result="effect4_innerShadow_11133_29457"/>
<feColorMatrix in="SourceAlpha" type="matrix" values="0 0 0 0 0 0 0 0 0 0 0 0 0 0 0 0 0 0 127 0" result="hardAlpha"/>
<feOffset dy="-0.84958"/>
<feGaussianBlur stdDeviation="0.42479"/>
<feComposite in2="hardAlpha" operator="arithmetic" k2="-1" k3="1"/>
<feColorMatrix type="matrix" values="0 0 0 0 0 0 0 0 0 0.159074 0 0 0 0 0.636296 0 0 0 0.44 0"/>
<feBlend mode="normal" in2="effect4_innerShadow_11133_29457" result="effect5_innerShadow_11133_29457"/>
</filter>
<filter id="filter2_dddii_11133_29457" x="9.72289" y="15.9172" width="26.1074" height="19.8726" filterUnits="userSpaceOnUse" color-interpolation-filters="sRGB">
<feFlood flood-opacity="0" result="BackgroundImageFix"/>
<feColorMatrix in="SourceAlpha" type="matrix" values="0 0 0 0 0 0 0 0 0 0 0 0 0 0 0 0 0 0 127 0" result="hardAlpha"/>
<feOffset dy="0.42479"/>
<feGaussianBlur stdDeviation="0.42479"/>
<feComposite in2="hardAlpha" operator="out"/>
<feColorMatrix type="matrix" values="0 0 0 0 0.180924 0 0 0 0 0.356669 0 0 0 0 0.883903 0 0 0 0.24 0"/>
<feBlend mode="normal" in2="BackgroundImageFix" result="effect1_dropShadow_11133_29457"/>
<feColorMatrix in="SourceAlpha" type="matrix" values="0 0 0 0 0 0 0 0 0 0 0 0 0 0 0 0 0 0 127 0" result="hardAlpha"/>
<feOffset dy="3.25"/>
<feGaussianBlur stdDeviation="3.39832"/>
<feComposite in2="hardAlpha" operator="out"/>
<feColorMatrix type="matrix" values="0 0 0 0 0.164706 0 0 0 0 0.521569 0 0 0 0 1 0 0 0 0.06 0"/>
<feBlend mode="normal" in2="effect1_dropShadow_11133_29457" result="effect2_dropShadow_11133_29457"/>
<feColorMatrix in="SourceAlpha" type="matrix" values="0 0 0 0 0 0 0 0 0 0 0 0 0 0 0 0 0 0 127 0" result="hardAlpha"/>
<feOffset dy="1.55"/>
<feGaussianBlur stdDeviation="1.69916"/>
<feComposite in2="hardAlpha" operator="out"/>
<feColorMatrix type="matrix" values="0 0 0 0 0.0666667 0 0 0 0 0.137255 0 0 0 0 0.34902 0 0 0 0.05 0"/>
<feBlend mode="normal" in2="effect2_dropShadow_11133_29457" result="effect3_dropShadow_11133_29457"/>
<feBlend mode="normal" in="SourceGraphic" in2="effect3_dropShadow_11133_29457" result="shape"/>
<feColorMatrix in="SourceAlpha" type="matrix" values="0 0 0 0 0 0 0 0 0 0 0 0 0 0 0 0 0 0 127 0" result="hardAlpha"/>
<feOffset dy="1.69916"/>
<feGaussianBlur stdDeviation="0.42479"/>
<feComposite in2="hardAlpha" operator="arithmetic" k2="-1" k3="1"/>
<feColorMatrix type="matrix" values="0 0 0 0 1 0 0 0 0 1 0 0 0 0 1 0 0 0 0.7 0"/>
<feBlend mode="normal" in2="shape" result="effect4_innerShadow_11133_29457"/>
<feColorMatrix in="SourceAlpha" type="matrix" values="0 0 0 0 0 0 0 0 0 0 0 0 0 0 0 0 0 0 127 0" result="hardAlpha"/>
<feOffset dy="-0.84958"/>
<feGaussianBlur stdDeviation="0.42479"/>
<feComposite in2="hardAlpha" operator="arithmetic" k2="-1" k3="1"/>
<feColorMatrix type="matrix" values="0 0 0 0 0 0 0 0 0 0.159074 0 0 0 0 0.636296 0 0 0 0.44 0"/>
<feBlend mode="normal" in2="effect4_innerShadow_11133_29457" result="effect5_innerShadow_11133_29457"/>
</filter>
<linearGradient id="paint0_linear_11133_29457" x1="12.6453" y1="4.36133" x2="12.6453" y2="10.7299" gradientUnits="userSpaceOnUse">
<stop stop-color="#E9F1FF"/>
<stop offset="1" stop-color="#B2CDFF"/>
</linearGradient>
<linearGradient id="paint1_linear_11133_29457" x1="12.6453" y1="4.36133" x2="12.6453" y2="10.7299" gradientUnits="userSpaceOnUse">
<stop stop-color="#E9F1FF"/>
<stop offset="1" stop-color="#B2CDFF"/>
</linearGradient>
<linearGradient id="paint2_linear_11133_29457" x1="22.7766" y1="12.2656" x2="22.7766" y2="17.1762" gradientUnits="userSpaceOnUse">
<stop stop-color="#E9F1FF"/>
<stop offset="1" stop-color="#B2CDFF"/>
</linearGradient>
<linearGradient id="paint3_linear_11133_29457" x1="22.7766" y1="12.2656" x2="22.7766" y2="17.1762" gradientUnits="userSpaceOnUse">
<stop stop-color="#E9F1FF"/>
<stop offset="1" stop-color="#B2CDFF"/>
</linearGradient>
<linearGradient id="paint4_linear_11133_29457" x1="22.7766" y1="20.1484" x2="22.7766" y2="25.0589" gradientUnits="userSpaceOnUse">
<stop stop-color="#E9F1FF"/>
<stop offset="1" stop-color="#B2CDFF"/>
</linearGradient>
<linearGradient id="paint5_linear_11133_29457" x1="22.7766" y1="20.1484" x2="22.7766" y2="25.0589" gradientUnits="userSpaceOnUse">
<stop stop-color="#E9F1FF"/>
<stop offset="1" stop-color="#B2CDFF"/>
</linearGradient>
</defs>
</svg>
