<svg width="75" height="73" viewBox="0 0 75 73" fill="none" xmlns="http://www.w3.org/2000/svg">
<g filter="url(#filter0_dddii_11012_548077)">
<path d="M9.51132 50.9754C9.89527 55.813 13.4198 59.7736 17.9703 60.1228C24.5783 60.63 30.7625 60.63 37.3705 60.1228C41.921 59.7736 45.4457 55.813 45.8293 50.9754C46.6937 40.0885 46.6937 29.4461 45.8293 18.559C45.4457 13.7214 41.921 9.76082 37.3705 9.4116C30.7625 8.90447 24.5783 8.90447 17.9703 9.4116C13.4198 9.76082 9.89527 13.7214 9.51132 18.559C8.64727 29.4461 8.64727 40.0885 9.51132 50.9754Z" fill="url(#paint0_linear_11012_548077)"/>
<path d="M9.51132 50.9754C9.89527 55.813 13.4198 59.7736 17.9703 60.1228C24.5783 60.63 30.7625 60.63 37.3705 60.1228C41.921 59.7736 45.4457 55.813 45.8293 50.9754C46.6937 40.0885 46.6937 29.4461 45.8293 18.559C45.4457 13.7214 41.921 9.76082 37.3705 9.4116C30.7625 8.90447 24.5783 8.90447 17.9703 9.4116C13.4198 9.76082 9.89527 13.7214 9.51132 18.559C8.64727 29.4461 8.64727 40.0885 9.51132 50.9754Z" stroke="url(#paint1_linear_11012_548077)" stroke-width="2" stroke-linecap="round" stroke-linejoin="round"/>
</g>
<path d="M24.1018 50.5059H31.2419" stroke="#2370FF" stroke-width="3" stroke-linecap="round" stroke-linejoin="round"/>
<g opacity="0.6" filter="url(#filter1_ddii_11012_548077)">
<path d="M69.136 11.5767C64.8226 13.0244 63.4008 14.6364 62.3493 18.6514C61.2979 14.6364 59.876 13.0244 55.5627 11.5767C59.876 10.129 61.2979 8.51695 62.3493 4.50195C63.4008 8.51695 64.8226 10.129 69.136 11.5767Z" fill="url(#paint2_linear_11012_548077)"/>
<path d="M62.3489 3.50195C62.8036 3.50194 63.2014 3.80915 63.3167 4.24902C63.8256 6.19231 64.3896 7.40878 65.2463 8.31543C66.1068 9.22593 67.3587 9.92555 69.4543 10.6289C69.8616 10.7657 70.136 11.1476 70.136 11.5771C70.1358 12.0065 69.8614 12.3877 69.4543 12.5244C67.3587 13.2278 66.1068 13.9274 65.2463 14.8379C64.3896 15.7445 63.8256 16.961 63.3167 18.9043C63.2014 19.3442 62.8036 19.6514 62.3489 19.6514C61.8943 19.6512 61.4972 19.344 61.3821 18.9043C60.8732 16.961 60.3091 15.7445 59.4524 14.8379C58.592 13.9274 57.34 13.2278 55.2444 12.5244C54.8373 12.3877 54.5629 12.0065 54.5627 11.5771C54.5627 11.1476 54.8372 10.7657 55.2444 10.6289C57.34 9.92554 58.592 9.22595 59.4524 8.31543C60.3091 7.40878 60.8732 6.19233 61.3821 4.24902L61.4377 4.08984C61.5972 3.73671 61.9513 3.50212 62.3489 3.50195Z" stroke="url(#paint3_linear_11012_548077)" stroke-width="2" stroke-linecap="round" stroke-linejoin="round"/>
</g>
<g filter="url(#filter2_ddii_11012_548077)">
<path d="M38.6332 16.1339C37.1129 17.3877 35.027 20.0873 34.1968 22.6538C35.4071 25.0741 40.1668 31.575 45.2226 36.2697C45.933 36.9292 47.0231 36.9292 47.7333 36.2697C52.7893 31.575 57.549 25.0741 58.7593 22.6538C57.9291 20.0873 55.8433 17.3877 54.323 16.1339C54.0231 15.8864 53.6393 15.7764 53.2507 15.7764H39.7057C39.3168 15.7764 38.933 15.8866 38.6332 16.1339Z" fill="url(#paint4_linear_11012_548077)"/>
<path d="M53.2505 14.7764C53.8204 14.7764 54.4448 14.9376 54.9595 15.3623C56.6061 16.7204 58.8137 19.574 59.7104 22.3457C59.7911 22.595 59.7709 22.8662 59.6538 23.1006C59.0022 24.4035 57.4587 26.6987 55.4751 29.2266C53.4796 31.7696 50.9902 34.6105 48.4136 37.0029C47.3198 38.0184 45.6364 38.0182 44.5425 37.0029C41.9659 34.6105 39.4764 31.7696 37.481 29.2266C35.4974 26.6987 33.9538 24.4035 33.3022 23.1006C33.1852 22.8662 33.165 22.595 33.2456 22.3457C34.1423 19.574 36.3499 16.7204 37.9966 15.3623C38.511 14.9381 39.1351 14.7764 39.7056 14.7764H53.2505Z" stroke="url(#paint5_linear_11012_548077)" stroke-width="2" stroke-linecap="round" stroke-linejoin="round"/>
</g>
<defs>
<filter id="filter0_dddii_11012_548077" x="0.465361" y="4.17085" width="54.4101" height="68.2675" filterUnits="userSpaceOnUse" color-interpolation-filters="sRGB">
<feFlood flood-opacity="0" result="BackgroundImageFix"/>
<feColorMatrix in="SourceAlpha" type="matrix" values="0 0 0 0 0 0 0 0 0 0 0 0 0 0 0 0 0 0 127 0" result="hardAlpha"/>
<feOffset dy="0.46237"/>
<feGaussianBlur stdDeviation="0.46237"/>
<feComposite in2="hardAlpha" operator="out"/>
<feColorMatrix type="matrix" values="0 0 0 0 0.180924 0 0 0 0 0.356669 0 0 0 0 0.883903 0 0 0 0.24 0"/>
<feBlend mode="normal" in2="BackgroundImageFix" result="effect1_dropShadow_11012_548077"/>
<feColorMatrix in="SourceAlpha" type="matrix" values="0 0 0 0 0 0 0 0 0 0 0 0 0 0 0 0 0 0 127 0" result="hardAlpha"/>
<feOffset dy="3.53752"/>
<feGaussianBlur stdDeviation="3.69896"/>
<feComposite in2="hardAlpha" operator="out"/>
<feColorMatrix type="matrix" values="0 0 0 0 0.164706 0 0 0 0 0.521569 0 0 0 0 1 0 0 0 0.06 0"/>
<feBlend mode="normal" in2="effect1_dropShadow_11012_548077" result="effect2_dropShadow_11012_548077"/>
<feColorMatrix in="SourceAlpha" type="matrix" values="0 0 0 0 0 0 0 0 0 0 0 0 0 0 0 0 0 0 127 0" result="hardAlpha"/>
<feOffset dy="1.68712"/>
<feGaussianBlur stdDeviation="1.84948"/>
<feComposite in2="hardAlpha" operator="out"/>
<feColorMatrix type="matrix" values="0 0 0 0 0.0666667 0 0 0 0 0.137255 0 0 0 0 0.34902 0 0 0 0.05 0"/>
<feBlend mode="normal" in2="effect2_dropShadow_11012_548077" result="effect3_dropShadow_11012_548077"/>
<feBlend mode="normal" in="SourceGraphic" in2="effect3_dropShadow_11012_548077" result="shape"/>
<feColorMatrix in="SourceAlpha" type="matrix" values="0 0 0 0 0 0 0 0 0 0 0 0 0 0 0 0 0 0 127 0" result="hardAlpha"/>
<feOffset dy="1.84948"/>
<feGaussianBlur stdDeviation="0.46237"/>
<feComposite in2="hardAlpha" operator="arithmetic" k2="-1" k3="1"/>
<feColorMatrix type="matrix" values="0 0 0 0 1 0 0 0 0 1 0 0 0 0 1 0 0 0 0.7 0"/>
<feBlend mode="normal" in2="shape" result="effect4_innerShadow_11012_548077"/>
<feColorMatrix in="SourceAlpha" type="matrix" values="0 0 0 0 0 0 0 0 0 0 0 0 0 0 0 0 0 0 127 0" result="hardAlpha"/>
<feOffset dy="-0.92474"/>
<feGaussianBlur stdDeviation="0.46237"/>
<feComposite in2="hardAlpha" operator="arithmetic" k2="-1" k3="1"/>
<feColorMatrix type="matrix" values="0 0 0 0 0 0 0 0 0 0.159074 0 0 0 0 0.636296 0 0 0 0.44 0"/>
<feBlend mode="normal" in2="effect4_innerShadow_11012_548077" result="effect5_innerShadow_11012_548077"/>
</filter>
<filter id="filter1_ddii_11012_548077" x="50.5534" y="0.495733" width="23.5919" height="24.1681" filterUnits="userSpaceOnUse" color-interpolation-filters="sRGB">
<feFlood flood-opacity="0" result="BackgroundImageFix"/>
<feColorMatrix in="SourceAlpha" type="matrix" values="0 0 0 0 0 0 0 0 0 0 0 0 0 0 0 0 0 0 127 0" result="hardAlpha"/>
<feOffset dy="0.250778"/>
<feGaussianBlur stdDeviation="0.250778"/>
<feComposite in2="hardAlpha" operator="out"/>
<feColorMatrix type="matrix" values="0 0 0 0 0.0862745 0 0 0 0 0.407843 0 0 0 0 0.956863 0 0 0 0.4 0"/>
<feBlend mode="normal" in2="BackgroundImageFix" result="effect1_dropShadow_11012_548077"/>
<feColorMatrix in="SourceAlpha" type="matrix" values="0 0 0 0 0 0 0 0 0 0 0 0 0 0 0 0 0 0 127 0" result="hardAlpha"/>
<feOffset dy="1.00311"/>
<feGaussianBlur stdDeviation="1.50467"/>
<feComposite in2="hardAlpha" operator="out"/>
<feColorMatrix type="matrix" values="0 0 0 0 0.0745098 0 0 0 0 0.392157 0 0 0 0 0.94902 0 0 0 0.35 0"/>
<feBlend mode="normal" in2="effect1_dropShadow_11012_548077" result="effect2_dropShadow_11012_548077"/>
<feBlend mode="normal" in="SourceGraphic" in2="effect2_dropShadow_11012_548077" result="shape"/>
<feColorMatrix in="SourceAlpha" type="matrix" values="0 0 0 0 0 0 0 0 0 0 0 0 0 0 0 0 0 0 127 0" result="hardAlpha"/>
<feOffset dy="0.879119"/>
<feGaussianBlur stdDeviation="0.132335"/>
<feComposite in2="hardAlpha" operator="arithmetic" k2="-1" k3="1"/>
<feColorMatrix type="matrix" values="0 0 0 0 1 0 0 0 0 1 0 0 0 0 1 0 0 0 0.35 0"/>
<feBlend mode="normal" in2="shape" result="effect3_innerShadow_11012_548077"/>
<feColorMatrix in="SourceAlpha" type="matrix" values="0 0 0 0 0 0 0 0 0 0 0 0 0 0 0 0 0 0 127 0" result="hardAlpha"/>
<feOffset dy="-1.05868"/>
<feGaussianBlur stdDeviation="0.132335"/>
<feComposite in2="hardAlpha" operator="arithmetic" k2="-1" k3="1"/>
<feColorMatrix type="matrix" values="0 0 0 0 0.0561283 0 0 0 0 0.236664 0 0 0 0 0.778271 0 0 0 0.4 0"/>
<feBlend mode="normal" in2="effect3_innerShadow_11012_548077" result="effect4_innerShadow_11012_548077"/>
</filter>
<filter id="filter2_ddii_11012_548077" x="26.5241" y="9.99461" width="39.9078" height="36.3335" filterUnits="userSpaceOnUse" color-interpolation-filters="sRGB">
<feFlood flood-opacity="0" result="BackgroundImageFix"/>
<feColorMatrix in="SourceAlpha" type="matrix" values="0 0 0 0 0 0 0 0 0 0 0 0 0 0 0 0 0 0 127 0" result="hardAlpha"/>
<feOffset dy="0.472719"/>
<feGaussianBlur stdDeviation="0.472719"/>
<feComposite in2="hardAlpha" operator="out"/>
<feColorMatrix type="matrix" values="0 0 0 0 0.0862745 0 0 0 0 0.407843 0 0 0 0 0.956863 0 0 0 0.4 0"/>
<feBlend mode="normal" in2="BackgroundImageFix" result="effect1_dropShadow_11012_548077"/>
<feColorMatrix in="SourceAlpha" type="matrix" values="0 0 0 0 0 0 0 0 0 0 0 0 0 0 0 0 0 0 127 0" result="hardAlpha"/>
<feOffset dy="1.89088"/>
<feGaussianBlur stdDeviation="2.83631"/>
<feComposite in2="hardAlpha" operator="out"/>
<feColorMatrix type="matrix" values="0 0 0 0 0.0745098 0 0 0 0 0.392157 0 0 0 0 0.94902 0 0 0 0.35 0"/>
<feBlend mode="normal" in2="effect1_dropShadow_11012_548077" result="effect2_dropShadow_11012_548077"/>
<feBlend mode="normal" in="SourceGraphic" in2="effect2_dropShadow_11012_548077" result="shape"/>
<feColorMatrix in="SourceAlpha" type="matrix" values="0 0 0 0 0 0 0 0 0 0 0 0 0 0 0 0 0 0 127 0" result="hardAlpha"/>
<feOffset dy="1.65715"/>
<feGaussianBlur stdDeviation="0.249453"/>
<feComposite in2="hardAlpha" operator="arithmetic" k2="-1" k3="1"/>
<feColorMatrix type="matrix" values="0 0 0 0 1 0 0 0 0 1 0 0 0 0 1 0 0 0 0.35 0"/>
<feBlend mode="normal" in2="shape" result="effect3_innerShadow_11012_548077"/>
<feColorMatrix in="SourceAlpha" type="matrix" values="0 0 0 0 0 0 0 0 0 0 0 0 0 0 0 0 0 0 127 0" result="hardAlpha"/>
<feOffset dy="-1.99562"/>
<feGaussianBlur stdDeviation="0.249453"/>
<feComposite in2="hardAlpha" operator="arithmetic" k2="-1" k3="1"/>
<feColorMatrix type="matrix" values="0 0 0 0 0.0561283 0 0 0 0 0.236664 0 0 0 0 0.778271 0 0 0 0.4 0"/>
<feBlend mode="normal" in2="effect3_innerShadow_11012_548077" result="effect4_innerShadow_11012_548077"/>
</filter>
<linearGradient id="paint0_linear_11012_548077" x1="27.6704" y1="9.03125" x2="27.6704" y2="60.5032" gradientUnits="userSpaceOnUse">
<stop stop-color="#E9F1FF"/>
<stop offset="1" stop-color="#B2CDFF"/>
</linearGradient>
<linearGradient id="paint1_linear_11012_548077" x1="27.6704" y1="9.03125" x2="27.6704" y2="60.5032" gradientUnits="userSpaceOnUse">
<stop stop-color="#E9F1FF"/>
<stop offset="1" stop-color="#82AEFF"/>
</linearGradient>
<linearGradient id="paint2_linear_11012_548077" x1="62.3494" y1="4.50195" x2="62.3494" y2="18.6514" gradientUnits="userSpaceOnUse">
<stop stop-color="#2A85FF"/>
<stop offset="1" stop-color="#0956EC"/>
</linearGradient>
<linearGradient id="paint3_linear_11012_548077" x1="62.3494" y1="4.50195" x2="62.3494" y2="18.6514" gradientUnits="userSpaceOnUse">
<stop stop-color="#2A85FF"/>
<stop offset="1" stop-color="#0956EC"/>
</linearGradient>
<linearGradient id="paint4_linear_11012_548077" x1="46.4781" y1="15.7764" x2="46.4781" y2="36.7644" gradientUnits="userSpaceOnUse">
<stop stop-color="#2A85FF"/>
<stop offset="1" stop-color="#0956EC"/>
</linearGradient>
<linearGradient id="paint5_linear_11012_548077" x1="46.4781" y1="15.7764" x2="46.4781" y2="36.7644" gradientUnits="userSpaceOnUse">
<stop stop-color="#2A85FF"/>
<stop offset="1" stop-color="#0956EC"/>
</linearGradient>
</defs>
</svg>
