<svg width="17" height="17" viewBox="0 0 17 17" fill="none" xmlns="http://www.w3.org/2000/svg">
<rect width="15.3514" height="15.3514" rx="4" fill="#E9F1FF"/>
<path d="M16 3.31034V7.17241H15V3.31034C15 2.03437 13.9657 1 12.6897 1H3.31034C2.03438 1 1 2.03438 1 3.31034V12.6897C1 13.9657 2.03437 15 3.31034 15H4.96552V16H3.31034C1.4821 16 0 14.518 0 12.6897V3.31034C0 1.4821 1.4821 0 3.31034 0H12.6897C14.518 0 16 1.4821 16 3.31034Z" fill="#2370FF"/>
<path fill-rule="evenodd" clip-rule="evenodd" d="M7.97191 6.18641C7.79799 6.08721 7.58166 6.10133 7.42211 6.2223C7.26256 6.34327 7.19056 6.54775 7.23912 6.742L9.58395 16.1213C9.63462 16.324 9.80597 16.4738 10.0136 16.497C10.2212 16.5201 10.4214 16.4117 10.5155 16.2252L12.2076 12.8699L16.1289 11.8242C16.3249 11.7719 16.4698 11.6065 16.4959 11.4053C16.522 11.2042 16.424 11.0072 16.2478 10.9067L7.97191 6.18641ZM10.228 14.5744L8.49313 7.63492L14.6942 11.1718L11.7333 11.9614C11.5955 11.9981 11.4799 12.092 11.4157 12.2194L10.228 14.5744Z" fill="#2370FF"/>
</svg>
