<svg width="18" height="18" viewBox="0 0 18 18" fill="none" xmlns="http://www.w3.org/2000/svg">
<path d="M8.95996 3.5L13.96 1.5V14L11.46 16L8.95996 16.5V3.5Z" fill="#E9F1FF"/>
<path fill-rule="evenodd" clip-rule="evenodd" d="M1.12877 1.62029C0.978692 1.58029 0.818547 1.61231 0.695382 1.70693C0.572199 1.80157 0.5 1.94809 0.5 2.10343V14.7931C0.5 14.9667 0.590078 15.1279 0.737951 15.2189L1 14.7931C0.737951 15.2189 0.73781 15.2188 0.737951 15.2189L0.739525 15.2199L0.742413 15.2216L0.752103 15.2275L0.786916 15.2483C0.8169 15.266 0.860333 15.2913 0.916542 15.3231C1.02894 15.3867 1.19254 15.4763 1.40192 15.5832C1.82047 15.7969 2.42325 16.0805 3.16683 16.3638C4.6507 16.9291 6.71306 17.5 9 17.5C11.2869 17.5 13.3493 16.9291 14.8332 16.3638C15.5768 16.0805 16.1795 15.7969 16.5981 15.5832C16.8075 15.4763 16.9711 15.3867 17.0835 15.3231C17.1397 15.2913 17.1831 15.266 17.2131 15.2483L17.2479 15.2275L17.2576 15.2216L17.2605 15.2199L17.2614 15.2193C17.2616 15.2192 17.262 15.2189 17 14.7931L17.2614 15.2193C17.4093 15.1283 17.5 14.9667 17.5 14.7931V2.10343C17.5 1.82729 17.2761 1.60343 17 1.60343C16.7239 1.60343 16.5 1.82729 16.5 2.10343V14.5036C16.4066 14.5551 16.287 14.6192 16.1433 14.6926C15.7515 14.8927 15.1819 15.1608 14.4772 15.4293C13.176 15.925 11.4295 16.4159 9.5 16.4903V3.20688C9.5 2.93073 9.27614 2.70688 9 2.70688C7.11124 2.70688 5.14412 2.43648 3.64117 2.16322C2.89154 2.02692 2.26138 1.89066 1.81933 1.78865C1.59837 1.73766 1.4246 1.69527 1.30661 1.66577C1.24763 1.65102 1.2026 1.6395 1.17261 1.63175L1.13903 1.623L1.13096 1.62088L1.12877 1.62029C1.12879 1.6203 1.12875 1.62029 1.12877 1.62029ZM8.5 16.4903V3.70105C6.6875 3.65946 4.8647 3.40207 3.46228 3.14709C2.69466 3.00752 2.04896 2.86792 1.59447 2.76304C1.562 2.75554 1.5305 2.74823 1.5 2.7411V14.5036C1.59339 14.5551 1.713 14.6192 1.8567 14.6926C2.2485 14.8927 2.81813 15.1608 3.52283 15.4293C4.82398 15.925 6.57049 16.4159 8.5 16.4903Z" fill="#2370FF"/>
<path fill-rule="evenodd" clip-rule="evenodd" d="M13.8655 0.531922C14.0605 0.605188 14.1897 0.791669 14.1897 0.999974V14.5172C14.1897 14.6383 14.1457 14.7553 14.0659 14.8465L13.6897 14.5172C14.0659 14.8465 14.0661 14.8463 14.0659 14.8465L14.0647 14.8479L14.0627 14.8502L14.0566 14.857L14.0359 14.8799C14.0183 14.899 13.9934 14.9258 13.9612 14.9591C13.8969 15.0258 13.8038 15.1188 13.684 15.2294C13.4447 15.4503 13.0965 15.7434 12.6567 16.0367C11.7815 16.6201 10.5127 17.2241 9 17.2241C8.72386 17.2241 8.5 17.0003 8.5 16.7241C8.5 16.448 8.72386 16.2241 9 16.2241C10.2459 16.2241 11.3219 15.7247 12.102 15.2046C12.4897 14.9462 12.7967 14.6876 13.0057 14.4946C13.08 14.4261 13.1415 14.3661 13.1897 14.3177V2.133C13.0313 2.25751 12.8531 2.38846 12.6567 2.51945C11.7815 3.10286 10.5127 3.70687 9 3.70687C8.72386 3.70687 8.5 3.48301 8.5 3.20687C8.5 2.93073 8.72386 2.70688 9 2.70688C10.2459 2.70688 11.3219 2.20743 12.102 1.6874C12.4897 1.42892 12.7967 1.17032 13.0057 0.977399C13.11 0.881134 13.1893 0.801776 13.2414 0.747733C13.2674 0.720728 13.2866 0.700097 13.2987 0.686896L13.3115 0.672819L13.3134 0.670721C13.4506 0.514136 13.6706 0.458693 13.8655 0.531922Z" fill="#2370FF"/>
</svg>
