<svg width="17" height="17" viewBox="0 0 17 17" fill="none" xmlns="http://www.w3.org/2000/svg">
<rect x="0.229492" y="0.5" width="11.8768" height="15.729" rx="2" fill="#E9F1FF"/>
<path fill-rule="evenodd" clip-rule="evenodd" d="M4.83893 3.25427C3.9637 3.25427 3.25418 3.9638 3.25418 4.83902V6.46615C3.25418 7.34141 3.96371 8.0509 4.83893 8.0509H7.55081C8.42606 8.0509 9.13556 7.3414 9.13556 6.46615V4.83902C9.13556 3.9638 8.42607 3.25427 7.55081 3.25427H4.83893ZM4.25418 4.83902C4.25418 4.51608 4.51599 4.25427 4.83893 4.25427H7.55081C7.87377 4.25427 8.13556 4.51607 8.13556 4.83902V6.46615C8.13556 6.78912 7.87378 7.0509 7.55081 7.0509H4.83893C4.51598 7.0509 4.25418 6.78911 4.25418 6.46615V4.83902Z" fill="#2370FF"/>
<path d="M3.52518 10.2628C3.52518 9.98668 3.74904 9.76282 4.02518 9.76282H8.36419C8.64033 9.76282 8.86419 9.98668 8.86419 10.2628C8.86419 10.539 8.64033 10.7628 8.36419 10.7628H4.02518C3.74904 10.7628 3.52518 10.539 3.52518 10.2628Z" fill="#2370FF"/>
<path d="M4.02518 12.4746C3.74904 12.4746 3.52518 12.6985 3.52518 12.9746C3.52518 13.2508 3.74904 13.4746 4.02518 13.4746H8.36419C8.64033 13.4746 8.86419 13.2508 8.86419 12.9746C8.86419 12.6985 8.64033 12.4746 8.36419 12.4746H4.02518Z" fill="#2370FF"/>
<path fill-rule="evenodd" clip-rule="evenodd" d="M1.58475 16.7289H14.0398L14.0591 16.729C15.5335 16.729 16.7286 15.5338 16.7286 14.0595V7.79752C16.7286 6.48652 15.6659 5.42383 14.3549 5.42383H12.3899V1.58475C12.3899 0.709529 11.6804 0 10.8051 0H1.58475C0.709526 0 0 0.709509 0 1.58475V15.1441C0 16.0194 0.709529 16.7289 1.58475 16.7289ZM1.58475 1C1.2618 1 1 1.2618 1 1.58475V15.1441C1 15.4671 1.2618 15.7289 1.58475 15.7289H11.9759C11.6091 15.2717 11.3896 14.6912 11.3896 14.0595V5.92383L11.3899 5.90739V1.58475C11.3899 1.2618 11.1281 1 10.8051 1H1.58475ZM14.0594 15.7289L14.0667 15.729C14.9853 15.7249 15.7286 14.979 15.7286 14.0595V7.79752C15.7286 7.03881 15.1137 6.42383 14.3549 6.42383H12.3896V14.0595C12.3896 14.9764 13.1288 15.7207 14.0438 15.7289H14.0594Z" fill="#2370FF"/>
</svg>
