<svg width="64" height="76" viewBox="0 0 64 76" fill="none" xmlns="http://www.w3.org/2000/svg">
<g filter="url(#filter0_dddii_11012_548090)">
<path d="M24.9864 38.2994H14.9871C11.6052 38.2994 9.37597 34.8529 11.0095 31.9304C17.1367 20.9683 25.9731 10.2313 36.0392 5.22579C37.5372 4.4809 39.1801 5.68111 39.0717 7.33309L38.0617 22.7301C42.2078 22.8819 46.6203 23.2171 50.3818 23.8625C52.9758 24.3075 54.2979 26.9814 53.0853 29.288C49.0253 37.012 40.2289 49.2847 25.7729 60.5188C24.2486 61.7034 22.0736 60.5571 22.1929 58.6462C22.6261 51.7048 23.4175 44.6917 24.9864 38.2994Z" fill="url(#paint0_linear_11012_548090)"/>
<path d="M24.9864 38.2994H14.9871C11.6052 38.2994 9.37597 34.8529 11.0095 31.9304C17.1367 20.9683 25.9731 10.2313 36.0392 5.22579C37.5372 4.4809 39.1801 5.68111 39.0717 7.33309L38.0617 22.7301C42.2078 22.8819 46.6203 23.2171 50.3818 23.8625C52.9758 24.3075 54.2979 26.9814 53.0853 29.288C49.0253 37.012 40.2289 49.2847 25.7729 60.5188C24.2486 61.7034 22.0736 60.5571 22.1929 58.6462C22.6261 51.7048 23.4175 44.6917 24.9864 38.2994Z" stroke="url(#paint1_linear_11012_548090)" stroke-width="2" stroke-linecap="round" stroke-linejoin="round"/>
</g>
<defs>
<filter id="filter0_dddii_11012_548090" x="0.840837" y="0.763008" width="62.3134" height="75.2353" filterUnits="userSpaceOnUse" color-interpolation-filters="sRGB">
<feFlood flood-opacity="0" result="BackgroundImageFix"/>
<feColorMatrix in="SourceAlpha" type="matrix" values="0 0 0 0 0 0 0 0 0 0 0 0 0 0 0 0 0 0 127 0" result="hardAlpha"/>
<feOffset dy="0.53836"/>
<feGaussianBlur stdDeviation="0.53836"/>
<feComposite in2="hardAlpha" operator="out"/>
<feColorMatrix type="matrix" values="0 0 0 0 0.180924 0 0 0 0 0.356669 0 0 0 0 0.883903 0 0 0 0.29 0"/>
<feBlend mode="normal" in2="BackgroundImageFix" result="effect1_dropShadow_11012_548090"/>
<feColorMatrix in="SourceAlpha" type="matrix" values="0 0 0 0 0 0 0 0 0 0 0 0 0 0 0 0 0 0 127 0" result="hardAlpha"/>
<feOffset dy="5.3836"/>
<feGaussianBlur stdDeviation="4.30688"/>
<feComposite in2="hardAlpha" operator="out"/>
<feColorMatrix type="matrix" values="0 0 0 0 0.164706 0 0 0 0 0.521569 0 0 0 0 1 0 0 0 0.09 0"/>
<feBlend mode="normal" in2="effect1_dropShadow_11012_548090" result="effect2_dropShadow_11012_548090"/>
<feColorMatrix in="SourceAlpha" type="matrix" values="0 0 0 0 0 0 0 0 0 0 0 0 0 0 0 0 0 0 127 0" result="hardAlpha"/>
<feOffset dy="3.23016"/>
<feGaussianBlur stdDeviation="2.15344"/>
<feComposite in2="hardAlpha" operator="out"/>
<feColorMatrix type="matrix" values="0 0 0 0 0.0666667 0 0 0 0 0.137255 0 0 0 0 0.34902 0 0 0 0.07 0"/>
<feBlend mode="normal" in2="effect2_dropShadow_11012_548090" result="effect3_dropShadow_11012_548090"/>
<feBlend mode="normal" in="SourceGraphic" in2="effect3_dropShadow_11012_548090" result="shape"/>
<feColorMatrix in="SourceAlpha" type="matrix" values="0 0 0 0 0 0 0 0 0 0 0 0 0 0 0 0 0 0 127 0" result="hardAlpha"/>
<feOffset dy="2.15344"/>
<feGaussianBlur stdDeviation="0.53836"/>
<feComposite in2="hardAlpha" operator="arithmetic" k2="-1" k3="1"/>
<feColorMatrix type="matrix" values="0 0 0 0 1 0 0 0 0 1 0 0 0 0 1 0 0 0 0.7 0"/>
<feBlend mode="normal" in2="shape" result="effect4_innerShadow_11012_548090"/>
<feColorMatrix in="SourceAlpha" type="matrix" values="0 0 0 0 0 0 0 0 0 0 0 0 0 0 0 0 0 0 127 0" result="hardAlpha"/>
<feOffset dy="-1.07672"/>
<feGaussianBlur stdDeviation="0.53836"/>
<feComposite in2="hardAlpha" operator="arithmetic" k2="-1" k3="1"/>
<feColorMatrix type="matrix" values="0 0 0 0 0 0 0 0 0 0.159074 0 0 0 0 0.636296 0 0 0 0.46 0"/>
<feBlend mode="normal" in2="effect4_innerShadow_11012_548090" result="effect5_innerShadow_11012_548090"/>
</filter>
<linearGradient id="paint0_linear_11012_548090" x1="32.0009" y1="5" x2="32.0009" y2="61" gradientUnits="userSpaceOnUse">
<stop stop-color="#E9F1FF"/>
<stop offset="1" stop-color="#B2CDFF"/>
</linearGradient>
<linearGradient id="paint1_linear_11012_548090" x1="32.0009" y1="5" x2="32.0009" y2="61" gradientUnits="userSpaceOnUse">
<stop stop-color="#E9F1FF"/>
<stop offset="1" stop-color="#82AEFF"/>
</linearGradient>
</defs>
</svg>
