<svg width="53" height="52" viewBox="0 0 53 52" fill="none" xmlns="http://www.w3.org/2000/svg">
<path d="M0.904785 39.666C0.904785 46.4054 6.36809 51.8687 13.1074 51.8687L40.4181 51.8687C47.1574 51.8687 52.6207 46.4053 52.6207 39.666L52.6207 12.3554C52.6207 5.61605 47.1574 0.15276 40.418 0.15276L13.1074 0.15276C6.36807 0.15276 0.904785 5.61606 0.904785 12.3554L0.904785 39.666Z" fill="url(#paint0_linear_10_24716)"/>
<path d="M18.9641 32.0762C20.0841 32.1938 20.9532 33.1677 21.385 34.2363C21.6738 34.9508 22.1049 35.6076 22.6604 36.1631C23.7475 37.2502 25.2226 37.8603 26.76 37.8604C28.2972 37.8602 29.7717 37.2501 30.8586 36.1631C31.4141 35.6076 31.8452 34.9508 32.134 34.2363C32.5659 33.1677 33.435 32.1938 34.5549 32.0762L34.7825 32.0645H35.4446L35.6731 32.0752C36.797 32.1903 37.6778 33.1459 37.4446 34.2744C37.0163 36.3443 35.992 38.2631 34.4749 39.7803C32.4287 41.8262 29.6536 42.9755 26.76 42.9756C23.8663 42.9756 21.0905 41.8264 19.0442 39.7803C17.6219 38.3579 16.6324 36.5829 16.1614 34.6611L16.0745 34.2744C15.8412 33.146 16.7221 32.1903 17.8459 32.0752L18.0745 32.0645H18.7366L18.9641 32.0762ZM27.3215 9.06934C33.0866 9.36183 37.671 14.129 37.6711 19.9668L37.6575 20.5283C37.365 26.2934 32.5977 30.8777 26.76 30.8779L26.1985 30.8643C20.619 30.5816 16.1456 26.1077 15.8625 20.5283L15.8479 19.9668C15.848 13.9405 20.7338 9.05471 26.76 9.05469L27.3215 9.06934ZM26.76 13.9521C23.4386 13.9522 20.7455 16.6454 20.7454 19.9668C20.7456 23.2882 23.4387 25.9804 26.76 25.9805C30.0811 25.9802 32.7735 23.288 32.7737 19.9668C32.7736 16.6455 30.0812 13.9524 26.76 13.9521Z" fill="white"/>
<defs>
<linearGradient id="paint0_linear_10_24716" x1="9.66388" y1="51.8687" x2="34.0262" y2="2.18653" gradientUnits="userSpaceOnUse">
<stop stop-color="#2370FF"/>
<stop offset="1" stop-color="#4199FF"/>
</linearGradient>
</defs>
</svg>
