<svg width="22" height="24" viewBox="0 0 22 24" fill="none" xmlns="http://www.w3.org/2000/svg">
<g filter="url(#filter0_d_7164_72652)">
<path d="M5.3185 18.9999H16.6896C17.9496 18.9999 18.9202 17.9164 18.3319 16.8023C17.4662 15.1633 15.4929 13.2068 11.004 13.2068C6.51521 13.2068 4.54186 15.1633 3.67627 16.8023C3.08784 17.9164 4.05844 18.9999 5.3185 18.9999Z" fill="#E9F1FF"/>
<path fill-rule="evenodd" clip-rule="evenodd" d="M11.0041 2.5C8.7473 2.5 6.91784 4.32946 6.91784 6.58621C6.91784 8.84296 8.7473 10.6724 11.0041 10.6724C13.2608 10.6724 15.0903 8.84296 15.0903 6.58621C15.0903 4.32946 13.2608 2.5 11.0041 2.5ZM7.91784 6.58621C7.91784 4.88174 9.29958 3.5 11.0041 3.5C12.7085 3.5 14.0903 4.88174 14.0903 6.58621C14.0903 8.29067 12.7085 9.67241 11.0041 9.67241C9.29958 9.67241 7.91784 8.29067 7.91784 6.58621Z" fill="#2370FF"/>
<path fill-rule="evenodd" clip-rule="evenodd" d="M11.0041 12.7069C8.68552 12.7069 6.97808 13.2129 5.72526 13.9607C4.47204 14.7088 3.70293 15.6814 3.23425 16.5689C2.84194 17.3117 2.97006 18.074 3.41316 18.6305C3.843 19.1702 4.55024 19.5 5.3186 19.5H16.6897C17.458 19.5 18.1653 19.1702 18.5951 18.6305C19.0382 18.0741 19.1663 17.3117 18.7741 16.5689C18.3054 15.6815 17.5362 14.7088 16.283 13.9607C15.0302 13.2129 13.3228 12.7069 11.0041 12.7069ZM4.1185 17.0359C4.5154 16.2844 5.16575 15.4593 6.23781 14.8194C7.31026 14.1792 8.83392 13.7069 11.0041 13.7069C13.1744 13.7069 14.698 14.1792 15.7705 14.8194C16.8425 15.4593 17.4929 16.2843 17.8898 17.0359C18.0859 17.4072 18.0229 17.7437 17.8128 18.0075C17.5894 18.288 17.1814 18.5 16.6897 18.5H5.3186C4.8269 18.5 4.41881 18.288 4.19543 18.0075C3.98533 17.7437 3.92237 17.4072 4.1185 17.0359Z" fill="#2370FF"/>
</g>
<defs>
<filter id="filter0_d_7164_72652" x="-2" y="0" width="26" height="26" filterUnits="userSpaceOnUse" color-interpolation-filters="sRGB">
<feFlood flood-opacity="0" result="BackgroundImageFix"/>
<feColorMatrix in="SourceAlpha" type="matrix" values="0 0 0 0 0 0 0 0 0 0 0 0 0 0 0 0 0 0 127 0" result="hardAlpha"/>
<feOffset dy="2"/>
<feGaussianBlur stdDeviation="1"/>
<feComposite in2="hardAlpha" operator="out"/>
<feColorMatrix type="matrix" values="0 0 0 0 0.137255 0 0 0 0 0.439216 0 0 0 0 1 0 0 0 0.15 0"/>
<feBlend mode="normal" in2="BackgroundImageFix" result="effect1_dropShadow_7164_72652"/>
<feBlend mode="normal" in="SourceGraphic" in2="effect1_dropShadow_7164_72652" result="shape"/>
</filter>
</defs>
</svg>
