<svg width="80" height="75" viewBox="0 0 80 75" fill="none" xmlns="http://www.w3.org/2000/svg">
<g filter="url(#filter0_dddii_11012_548089)">
<path d="M52.7577 39.2709C38.6512 44.0247 34.0009 49.3177 30.5622 62.501C27.1235 49.3177 22.4732 44.0247 8.3667 39.2709C22.4732 34.5175 27.1235 29.2245 30.5622 16.041C34.0009 29.2245 38.6512 34.5175 52.7577 39.2709Z" fill="url(#paint0_linear_11012_548089)"/>
<path d="M52.7577 39.2709C38.6512 44.0247 34.0009 49.3177 30.5622 62.501C27.1235 49.3177 22.4732 44.0247 8.3667 39.2709C22.4732 34.5175 27.1235 29.2245 30.5622 16.041C34.0009 29.2245 38.6512 34.5175 52.7577 39.2709Z" stroke="url(#paint1_linear_11012_548089)" stroke-width="2" stroke-linecap="round" stroke-linejoin="round"/>
</g>
<g filter="url(#filter1_ddii_11012_548089)">
<path d="M71.6333 17.942C64.6573 20.2834 62.3578 22.8906 60.6571 29.384C58.9567 22.8906 56.657 20.2834 49.6812 17.942C56.657 15.6007 58.9567 12.9935 60.6571 6.5C62.3578 12.9935 64.6573 15.6007 71.6333 17.942Z" fill="url(#paint2_linear_11012_548089)"/>
<path d="M60.6567 5.5C61.1115 5.49999 61.5093 5.80719 61.6245 6.24707C62.4581 9.42953 63.404 11.5139 64.894 13.0908C66.3879 14.6717 68.5246 15.8439 71.9517 16.9941C72.3589 17.1309 72.6333 17.5128 72.6333 17.9424C72.6332 18.3718 72.3588 18.7529 71.9517 18.8896C68.5246 20.0399 66.3879 21.2121 64.894 22.793C63.4039 24.37 62.4581 26.455 61.6245 29.6377C61.5092 30.0774 61.1113 30.3838 60.6567 30.3838C60.2023 30.3836 59.8052 30.0772 59.6899 29.6377C58.8565 26.455 57.9106 24.37 56.4204 22.793C54.9266 21.2121 52.7898 20.0399 49.3628 18.8896C48.9557 18.7529 48.6813 18.3718 48.6812 17.9424C48.6812 17.5128 48.9556 17.1309 49.3628 16.9941C52.7898 15.8439 54.9266 14.6717 56.4204 13.0908C57.9105 11.5139 58.8565 9.42953 59.6899 6.24707L59.7456 6.08789C59.9051 5.73475 60.2591 5.50015 60.6567 5.5Z" stroke="url(#paint3_linear_11012_548089)" stroke-width="2" stroke-linecap="round" stroke-linejoin="round"/>
</g>
<g opacity="0.8" filter="url(#filter2_ddii_11012_548089)">
<path d="M69.7593 48.9818C65.2241 50.4719 63.729 52.1314 62.6233 56.2643C61.5178 52.1314 60.0227 50.4719 55.4873 48.9818C60.0227 47.4915 61.5178 45.8322 62.6233 41.6992C63.729 45.8322 65.2241 47.4915 69.7593 48.9818Z" fill="url(#paint4_linear_11012_548089)"/>
<path d="M62.623 40.6992C63.0757 40.6992 63.4717 41.0033 63.5889 41.4404C64.124 43.4406 64.7184 44.6975 65.625 45.6367C66.5372 46.5817 67.8626 47.3064 70.0713 48.0322C70.4816 48.1671 70.7596 48.5496 70.7598 48.9814C70.7598 49.4135 70.4817 49.7968 70.0713 49.9316C67.8629 50.6573 66.5372 51.3813 65.625 52.3262C64.7185 53.2654 64.124 54.5223 63.5889 56.5225C63.4719 56.9598 63.0758 57.2647 62.623 57.2646C62.1704 57.2645 61.7742 56.9598 61.6572 56.5225C61.1222 54.5224 60.5286 53.2653 59.6221 52.3262C58.7099 51.3812 57.3835 50.6573 55.1748 49.9316C54.7646 49.7967 54.4873 49.4133 54.4873 48.9814C54.4874 48.5497 54.7647 48.1672 55.1748 48.0322C57.3836 47.3064 58.7099 46.5817 59.6221 45.6367C60.5285 44.6975 61.1222 43.4405 61.6572 41.4404L61.7139 41.2832C61.8743 40.9321 62.227 40.6993 62.623 40.6992Z" stroke="url(#paint5_linear_11012_548089)" stroke-width="2" stroke-linecap="round" stroke-linejoin="round"/>
</g>
<defs>
<filter id="filter0_dddii_11012_548089" x="0.301028" y="12.3914" width="60.5222" height="62.5913" filterUnits="userSpaceOnUse" color-interpolation-filters="sRGB">
<feFlood flood-opacity="0" result="BackgroundImageFix"/>
<feColorMatrix in="SourceAlpha" type="matrix" values="0 0 0 0 0 0 0 0 0 0 0 0 0 0 0 0 0 0 127 0" result="hardAlpha"/>
<feOffset dy="0.441604"/>
<feGaussianBlur stdDeviation="0.441604"/>
<feComposite in2="hardAlpha" operator="out"/>
<feColorMatrix type="matrix" values="0 0 0 0 0.180924 0 0 0 0 0.356669 0 0 0 0 0.883903 0 0 0 0.29 0"/>
<feBlend mode="normal" in2="BackgroundImageFix" result="effect1_dropShadow_11012_548089"/>
<feColorMatrix in="SourceAlpha" type="matrix" values="0 0 0 0 0 0 0 0 0 0 0 0 0 0 0 0 0 0 127 0" result="hardAlpha"/>
<feOffset dy="4.41604"/>
<feGaussianBlur stdDeviation="3.53284"/>
<feComposite in2="hardAlpha" operator="out"/>
<feColorMatrix type="matrix" values="0 0 0 0 0.164706 0 0 0 0 0.521569 0 0 0 0 1 0 0 0 0.09 0"/>
<feBlend mode="normal" in2="effect1_dropShadow_11012_548089" result="effect2_dropShadow_11012_548089"/>
<feColorMatrix in="SourceAlpha" type="matrix" values="0 0 0 0 0 0 0 0 0 0 0 0 0 0 0 0 0 0 127 0" result="hardAlpha"/>
<feOffset dy="2.64963"/>
<feGaussianBlur stdDeviation="1.76642"/>
<feComposite in2="hardAlpha" operator="out"/>
<feColorMatrix type="matrix" values="0 0 0 0 0.0666667 0 0 0 0 0.137255 0 0 0 0 0.34902 0 0 0 0.07 0"/>
<feBlend mode="normal" in2="effect2_dropShadow_11012_548089" result="effect3_dropShadow_11012_548089"/>
<feBlend mode="normal" in="SourceGraphic" in2="effect3_dropShadow_11012_548089" result="shape"/>
<feColorMatrix in="SourceAlpha" type="matrix" values="0 0 0 0 0 0 0 0 0 0 0 0 0 0 0 0 0 0 127 0" result="hardAlpha"/>
<feOffset dy="1.76642"/>
<feGaussianBlur stdDeviation="0.441604"/>
<feComposite in2="hardAlpha" operator="arithmetic" k2="-1" k3="1"/>
<feColorMatrix type="matrix" values="0 0 0 0 1 0 0 0 0 1 0 0 0 0 1 0 0 0 0.7 0"/>
<feBlend mode="normal" in2="shape" result="effect4_innerShadow_11012_548089"/>
<feColorMatrix in="SourceAlpha" type="matrix" values="0 0 0 0 0 0 0 0 0 0 0 0 0 0 0 0 0 0 127 0" result="hardAlpha"/>
<feOffset dy="-0.883209"/>
<feGaussianBlur stdDeviation="0.441604"/>
<feComposite in2="hardAlpha" operator="arithmetic" k2="-1" k3="1"/>
<feColorMatrix type="matrix" values="0 0 0 0 0 0 0 0 0 0.159074 0 0 0 0 0.636296 0 0 0 0.46 0"/>
<feBlend mode="normal" in2="effect4_innerShadow_11012_548089" result="effect5_innerShadow_11012_548089"/>
</filter>
<filter id="filter1_ddii_11012_548089" x="41.771" y="0.559931" width="37.7724" height="38.704" filterUnits="userSpaceOnUse" color-interpolation-filters="sRGB">
<feFlood flood-opacity="0" result="BackgroundImageFix"/>
<feColorMatrix in="SourceAlpha" type="matrix" values="0 0 0 0 0 0 0 0 0 0 0 0 0 0 0 0 0 0 127 0" result="hardAlpha"/>
<feOffset dy="0.492509"/>
<feGaussianBlur stdDeviation="0.492509"/>
<feComposite in2="hardAlpha" operator="out"/>
<feColorMatrix type="matrix" values="0 0 0 0 0.0862745 0 0 0 0 0.407843 0 0 0 0 0.956863 0 0 0 0.4 0"/>
<feBlend mode="normal" in2="BackgroundImageFix" result="effect1_dropShadow_11012_548089"/>
<feColorMatrix in="SourceAlpha" type="matrix" values="0 0 0 0 0 0 0 0 0 0 0 0 0 0 0 0 0 0 127 0" result="hardAlpha"/>
<feOffset dy="1.97003"/>
<feGaussianBlur stdDeviation="2.95505"/>
<feComposite in2="hardAlpha" operator="out"/>
<feColorMatrix type="matrix" values="0 0 0 0 0.0745098 0 0 0 0 0.392157 0 0 0 0 0.94902 0 0 0 0.35 0"/>
<feBlend mode="normal" in2="effect1_dropShadow_11012_548089" result="effect2_dropShadow_11012_548089"/>
<feBlend mode="normal" in="SourceGraphic" in2="effect2_dropShadow_11012_548089" result="shape"/>
<feColorMatrix in="SourceAlpha" type="matrix" values="0 0 0 0 0 0 0 0 0 0 0 0 0 0 0 0 0 0 127 0" result="hardAlpha"/>
<feOffset dy="1.72652"/>
<feGaussianBlur stdDeviation="0.259896"/>
<feComposite in2="hardAlpha" operator="arithmetic" k2="-1" k3="1"/>
<feColorMatrix type="matrix" values="0 0 0 0 1 0 0 0 0 1 0 0 0 0 1 0 0 0 0.35 0"/>
<feBlend mode="normal" in2="shape" result="effect3_innerShadow_11012_548089"/>
<feColorMatrix in="SourceAlpha" type="matrix" values="0 0 0 0 0 0 0 0 0 0 0 0 0 0 0 0 0 0 127 0" result="hardAlpha"/>
<feOffset dy="-2.07917"/>
<feGaussianBlur stdDeviation="0.259896"/>
<feComposite in2="hardAlpha" operator="arithmetic" k2="-1" k3="1"/>
<feColorMatrix type="matrix" values="0 0 0 0 0.0561283 0 0 0 0 0.236664 0 0 0 0 0.778271 0 0 0 0.4 0"/>
<feBlend mode="normal" in2="effect3_innerShadow_11012_548089" result="effect4_innerShadow_11012_548089"/>
</filter>
<filter id="filter2_ddii_11012_548089" x="47.5772" y="35.7591" width="30.0922" height="30.3856" filterUnits="userSpaceOnUse" color-interpolation-filters="sRGB">
<feFlood flood-opacity="0" result="BackgroundImageFix"/>
<feColorMatrix in="SourceAlpha" type="matrix" values="0 0 0 0 0 0 0 0 0 0 0 0 0 0 0 0 0 0 127 0" result="hardAlpha"/>
<feOffset dy="0.492509"/>
<feGaussianBlur stdDeviation="0.492509"/>
<feComposite in2="hardAlpha" operator="out"/>
<feColorMatrix type="matrix" values="0 0 0 0 0.0862745 0 0 0 0 0.407843 0 0 0 0 0.956863 0 0 0 0.4 0"/>
<feBlend mode="normal" in2="BackgroundImageFix" result="effect1_dropShadow_11012_548089"/>
<feColorMatrix in="SourceAlpha" type="matrix" values="0 0 0 0 0 0 0 0 0 0 0 0 0 0 0 0 0 0 127 0" result="hardAlpha"/>
<feOffset dy="1.97003"/>
<feGaussianBlur stdDeviation="2.95505"/>
<feComposite in2="hardAlpha" operator="out"/>
<feColorMatrix type="matrix" values="0 0 0 0 0.0745098 0 0 0 0 0.392157 0 0 0 0 0.94902 0 0 0 0.35 0"/>
<feBlend mode="normal" in2="effect1_dropShadow_11012_548089" result="effect2_dropShadow_11012_548089"/>
<feBlend mode="normal" in="SourceGraphic" in2="effect2_dropShadow_11012_548089" result="shape"/>
<feColorMatrix in="SourceAlpha" type="matrix" values="0 0 0 0 0 0 0 0 0 0 0 0 0 0 0 0 0 0 127 0" result="hardAlpha"/>
<feOffset dy="1.72652"/>
<feGaussianBlur stdDeviation="0.259896"/>
<feComposite in2="hardAlpha" operator="arithmetic" k2="-1" k3="1"/>
<feColorMatrix type="matrix" values="0 0 0 0 1 0 0 0 0 1 0 0 0 0 1 0 0 0 0.35 0"/>
<feBlend mode="normal" in2="shape" result="effect3_innerShadow_11012_548089"/>
<feColorMatrix in="SourceAlpha" type="matrix" values="0 0 0 0 0 0 0 0 0 0 0 0 0 0 0 0 0 0 127 0" result="hardAlpha"/>
<feOffset dy="-2.07917"/>
<feGaussianBlur stdDeviation="0.259896"/>
<feComposite in2="hardAlpha" operator="arithmetic" k2="-1" k3="1"/>
<feColorMatrix type="matrix" values="0 0 0 0 0.0561283 0 0 0 0 0.236664 0 0 0 0 0.778271 0 0 0 0.4 0"/>
<feBlend mode="normal" in2="effect3_innerShadow_11012_548089" result="effect4_innerShadow_11012_548089"/>
</filter>
<linearGradient id="paint0_linear_11012_548089" x1="30.5622" y1="16.041" x2="30.5622" y2="62.501" gradientUnits="userSpaceOnUse">
<stop stop-color="#E9F1FF"/>
<stop offset="1" stop-color="#B2CDFF"/>
</linearGradient>
<linearGradient id="paint1_linear_11012_548089" x1="30.5622" y1="16.041" x2="30.5622" y2="62.501" gradientUnits="userSpaceOnUse">
<stop stop-color="#E9F1FF"/>
<stop offset="1" stop-color="#82AEFF"/>
</linearGradient>
<linearGradient id="paint2_linear_11012_548089" x1="60.6572" y1="6.5" x2="60.6572" y2="29.384" gradientUnits="userSpaceOnUse">
<stop stop-color="#2A85FF"/>
<stop offset="1" stop-color="#0956EC"/>
</linearGradient>
<linearGradient id="paint3_linear_11012_548089" x1="60.6572" y1="6.5" x2="60.6572" y2="29.384" gradientUnits="userSpaceOnUse">
<stop stop-color="#2A85FF"/>
<stop offset="1" stop-color="#0956EC"/>
</linearGradient>
<linearGradient id="paint4_linear_11012_548089" x1="62.6233" y1="41.6992" x2="62.6233" y2="56.2643" gradientUnits="userSpaceOnUse">
<stop stop-color="#2A85FF"/>
<stop offset="1" stop-color="#0956EC"/>
</linearGradient>
<linearGradient id="paint5_linear_11012_548089" x1="62.6233" y1="41.6992" x2="62.6233" y2="56.2643" gradientUnits="userSpaceOnUse">
<stop stop-color="#2A85FF"/>
<stop offset="1" stop-color="#0956EC"/>
</linearGradient>
</defs>
</svg>
