<svg width="18" height="18" viewBox="0 0 18 18" fill="none" xmlns="http://www.w3.org/2000/svg">
<path fill-rule="evenodd" clip-rule="evenodd" d="M4.82225 17.7967C7.13472 17.7967 9.02304 15.9807 9.13886 13.697C9.98763 13.7067 10.8361 13.3584 11.4384 12.6658L17.217 6.02135C18.2781 4.80121 18.1813 2.9596 16.9981 1.85746L16.3266 1.23205C15.2028 0.185255 13.47 0.156239 12.3117 1.16482L5.62638 6.98646C4.96586 7.56165 4.62212 8.35544 4.59789 9.15793C2.31506 9.27465 0.5 11.1626 0.5 13.4745V16.7967C0.5 17.349 0.947715 17.7967 1.5 17.7967H4.82225ZM15.6451 1.96378L16.3165 2.5892C17.1053 3.32396 17.1698 4.55169 16.4624 5.36512L10.6838 12.0096C10.2642 12.4921 9.66535 12.724 9.07434 12.6947C8.75299 10.9309 7.36122 9.54061 5.59671 9.2214C5.60421 8.67518 5.83365 8.13198 6.28309 7.7406L12.9685 1.91896C13.7406 1.24658 14.8959 1.26592 15.6451 1.96378ZM2.27466 16.7967H4.82225C6.65707 16.7967 8.14449 15.3093 8.14449 13.4745C8.14449 11.6396 6.65707 10.1522 4.82225 10.1522C2.98742 10.1522 1.5 11.6396 1.5 13.4745L1.5 16.1571L3.25398 14.4032C3.44924 14.2079 3.76582 14.2079 3.96109 14.4032C4.15635 14.5984 4.15635 14.915 3.96109 15.1103L2.27466 16.7967Z" fill="#2370FF"/>
</svg>
