<svg width="38" height="59" viewBox="0 0 38 59" fill="none" xmlns="http://www.w3.org/2000/svg">
<path d="M5.00684 39.8818C7.13785 39.8818 8.79919 41.6707 9.59766 43.6465C10.0982 44.8851 10.8457 46.0234 11.8086 46.9863C13.6928 48.8705 16.2484 49.9296 18.9131 49.9297C21.5778 49.9297 24.1333 48.8705 26.0176 46.9863C26.9806 46.0233 27.7279 44.8851 28.2285 43.6465C29.002 41.7324 30.5854 39.9934 32.6211 39.8867L32.8193 39.8818H33.9678C36.0988 39.8818 37.8663 41.6271 37.4346 43.7139L37.2832 44.3838C36.4668 47.7147 34.7524 50.7906 32.2871 53.2559L31.9502 53.584C28.4387 56.9252 23.7722 58.7949 18.9131 58.7949C14.054 58.7949 9.38747 56.9253 5.87598 53.584L5.53906 53.2559C3.07389 50.7906 1.35933 47.7146 0.542969 44.3838L0.392578 43.7139C-0.0391594 41.6272 1.72752 39.882 3.8584 39.8818H5.00684ZM18.9131 0C29.3584 3.77475e-05 37.826 8.46778 37.8262 18.9131C37.8262 29.3585 29.3585 37.8261 18.9131 37.8262C8.46767 37.8261 0 29.3585 0 18.9131C0.00014845 8.4678 8.46776 6.39134e-05 18.9131 0ZM18.9131 8.48926C13.156 8.48932 8.48941 13.1561 8.48926 18.9131C8.48926 24.6702 13.1559 29.3378 18.9131 29.3379C24.6702 29.3379 29.3379 24.6702 29.3379 18.9131C29.3377 13.1561 24.6702 8.4893 18.9131 8.48926Z" fill="url(#paint0_linear_206_10168)"/>
<defs>
<linearGradient id="paint0_linear_206_10168" x1="18.9131" y1="0" x2="18.9131" y2="58.7949" gradientUnits="userSpaceOnUse">
<stop stop-color="#5293DA"/>
<stop offset="1" stop-color="#637BE1"/>
</linearGradient>
</defs>
</svg>
