<svg width="20" height="20" viewBox="0 0 20 20" fill="none" xmlns="http://www.w3.org/2000/svg">
<path d="M1.5 9.1207L7.94828 2.67242M9.12065 5.60345V1.5H5.0172M2.67241 18.5002H3.25862C3.90613 18.5002 4.43103 17.9753 4.43103 17.3278V14.3966C4.43103 13.749 3.90613 13.2241 3.25862 13.2241H2.67241C2.02491 13.2241 1.5 13.749 1.5 14.3966V17.3278C1.5 17.9753 2.02491 18.5002 2.67241 18.5002ZM9.70681 18.5002H10.293C10.9405 18.5002 11.4654 17.9753 11.4654 17.3278V10.8793C11.4654 10.2318 10.9405 9.70689 10.293 9.70689H9.70681C9.05928 9.70689 8.53439 10.2318 8.53439 10.8793V17.3278C8.53439 17.9753 9.05928 18.5002 9.70681 18.5002ZM16.7412 18.5002H17.3274C17.9749 18.5002 18.4998 17.9753 18.4998 17.3278V2.67241C18.4998 2.02491 17.9749 1.5 17.3274 1.5H16.7412C16.0937 1.5 15.5688 2.02491 15.5688 2.67241V17.3278C15.5688 17.9753 16.0937 18.5002 16.7412 18.5002Z" stroke="#000E41" stroke-width="1.5" stroke-linecap="round" stroke-linejoin="round"/>
</svg>
