<svg width="14" height="13" viewBox="0 0 14 13" fill="none" xmlns="http://www.w3.org/2000/svg">
<path d="M2.90937 9.1498e-09C2.83754 -1.50606e-05 2.76693 0.0185849 2.70443 0.053986C2.64194 0.0893871 2.58968 0.140381 2.55276 0.201994L0.0590048 4.35825C0.0147368 4.43221 -0.00544324 4.5181 0.00125856 4.60403C0.00796036 4.68996 0.0412123 4.77169 0.096411 4.83788L6.3308 12.3192C6.36981 12.3659 6.41862 12.4036 6.47377 12.4294C6.52893 12.4552 6.5891 12.4686 6.65 12.4686C6.71091 12.4686 6.77107 12.4552 6.82623 12.4294C6.88138 12.4036 6.93019 12.3659 6.9692 12.3192L13.2036 4.83788C13.2588 4.77169 13.292 4.68996 13.2987 4.60403C13.3054 4.5181 13.2853 4.43221 13.241 4.35825L10.7472 0.201994C10.7103 0.140381 10.6581 0.0893871 10.5956 0.053986C10.5331 0.0185849 10.4625 -1.50606e-05 10.3906 9.1498e-09H2.90937ZM1.14961 4.15626L3.14461 0.831252H4.78966L3.45966 4.15626H1.14961ZM3.45633 4.98751L5.34078 9.83288L1.30339 4.98751H3.45633ZM6.65 10.906L4.34826 4.98751H8.95174L6.65 10.906ZM4.35491 4.15626L5.68492 0.831252H7.61508L8.94509 4.15626H4.35491ZM9.84118 4.15626L8.51117 0.831252H10.1554L12.1504 4.15626H9.84118ZM9.84367 4.98751H11.9966L7.95922 9.83288L9.84367 4.98751Z" fill="white"/>
</svg>
