<svg width="20" height="20" viewBox="0 0 20 20" fill="none" xmlns="http://www.w3.org/2000/svg">
<path d="M14.7031 12.4828C17.2837 12.4828 18.3406 15.1491 18.7673 17.0709C18.9977 18.1087 18.1583 19 17.0951 19H15.9445M13.4618 7.82759C15.3472 7.82759 16.5652 6.29918 16.5652 4.41379C16.5652 2.52841 15.3472 1 13.4618 1M2.32861 19H11.5603C12.261 19 12.8125 18.4187 12.6728 17.732C12.2874 15.836 11.0282 12.4828 6.94445 12.4828C2.8607 12.4828 1.60162 15.836 1.21609 17.732C1.07645 18.4187 1.62785 19 2.32861 19ZM10.3583 4.41379C10.3583 6.29918 8.82985 7.82759 6.94447 7.82759C5.05908 7.82759 3.53068 6.29918 3.53068 4.41379C3.53068 2.52841 5.05908 1 6.94447 1C8.82985 1 10.3583 2.52841 10.3583 4.41379Z" stroke="#000E41" stroke-width="1.5" stroke-linecap="round" stroke-linejoin="round"/>
</svg>
