<svg width="74" height="74" viewBox="0 0 74 74" fill="none" xmlns="http://www.w3.org/2000/svg">
<g filter="url(#filter0_dddii_488_13760)">
<g clip-path="url(#clip0_488_13760)">
<rect x="7" y="5" width="60" height="60" rx="16" fill="url(#paint0_linear_488_13760)" shape-rendering="crispEdges"/>
<g opacity="0.5">
<circle cx="12.5346" cy="10.5346" r="0.893149" transform="rotate(180 12.5346 10.5346)" fill="white" fill-opacity="0.1"/>
<circle cx="26.3959" cy="14.6791" r="0.893149" transform="rotate(180 26.3959 14.6791)" fill="white" fill-opacity="0.4"/>
<circle cx="31.2143" cy="7.68888" r="0.893149" transform="rotate(180 31.2143 7.68888)" fill="white" fill-opacity="0.1"/>
<circle cx="41.892" cy="10.5336" r="0.893149" transform="rotate(180 41.892 10.5336)" fill="white" fill-opacity="0.1"/>
<circle cx="53.4662" cy="16.9858" r="0.893149" transform="rotate(180 53.4662 16.9858)" fill="white" fill-opacity="0.3"/>
<circle cx="60.5717" cy="12.893" r="0.893149" transform="rotate(180 60.5717 12.893)" fill="white" fill-opacity="0.1"/>
<circle cx="52.5736" cy="10.5346" r="0.893149" transform="rotate(180 52.5736 10.5346)" fill="white" fill-opacity="0.1"/>
<circle cx="14.3197" cy="22.1068" r="0.893149" transform="rotate(180 14.3197 22.1068)" fill="white" fill-opacity="0.1"/>
<circle cx="22.3197" cy="20.3197" r="0.893149" transform="rotate(180 22.3197 20.3197)" fill="white" fill-opacity="0.1"/>
<circle cx="37.894" cy="21.2133" r="0.893149" transform="rotate(180 37.894 21.2133)" fill="white" fill-opacity="0.1"/>
<circle cx="45.224" cy="20.3207" r="0.893149" transform="rotate(180 45.224 20.3207)" fill="white" fill-opacity="0.1"/>
<circle cx="48.1401" cy="29.2133" r="0.893149" transform="rotate(180 48.1401 29.2133)" fill="white" fill-opacity="0.1"/>
<circle cx="60.5717" cy="21.2133" r="0.893149" transform="rotate(180 60.5717 21.2133)" fill="white" fill-opacity="0.1"/>
<circle cx="9.62052" cy="28.3207" r="0.893149" transform="rotate(180 9.62052 28.3207)" fill="white" fill-opacity="0.1"/>
<circle cx="22.3197" cy="30.1059" r="0.893149" transform="rotate(180 22.3197 30.1059)" fill="white" fill-opacity="0.3"/>
<circle cx="32.1068" cy="30.1059" r="0.893149" transform="rotate(180 32.1068 30.1059)" fill="white" fill-opacity="0.1"/>
<circle cx="37.894" cy="34.1068" r="0.893149" transform="rotate(180 37.894 34.1068)" fill="white" fill-opacity="0.1"/>
<circle cx="56.0502" cy="27.8861" r="0.893149" transform="rotate(180 56.0502 27.8861)" fill="white" fill-opacity="0.1"/>
<circle cx="61.4662" cy="32.3207" r="0.893149" transform="rotate(180 61.4662 32.3207)" fill="white" fill-opacity="0.1"/>
<circle cx="15.2143" cy="38.9994" r="0.893149" transform="rotate(180 15.2143 38.9994)" fill="white" fill-opacity="0.1"/>
<circle cx="28.183" cy="38.9994" r="0.893149" transform="rotate(180 28.183 38.9994)" fill="white" fill-opacity="0.1"/>
<circle cx="36.1068" cy="45.0258" r="0.893149" transform="rotate(180 36.1068 45.0258)" fill="white" fill-opacity="0.1"/>
<circle cx="41.892" cy="39.892" r="0.893149" transform="rotate(180 41.892 39.892)" fill="white" fill-opacity="0.1"/>
<circle cx="49.9272" cy="35.893" r="0.893149" transform="rotate(180 49.9272 35.893)" fill="white" fill-opacity="0.1"/>
<circle cx="58.9096" cy="41.6791" r="0.893149" transform="rotate(180 58.9096 41.6791)" fill="white" fill-opacity="0.3"/>
<circle cx="12.1186" cy="47.4584" r="0.893149" transform="rotate(180 12.1186 47.4584)" fill="white" fill-opacity="0.1"/>
<circle cx="21.4272" cy="47.892" r="0.893149" transform="rotate(180 21.4272 47.892)" fill="white" fill-opacity="0.1"/>
<circle cx="32.1068" cy="49.6781" r="0.893149" transform="rotate(180 32.1068 49.6781)" fill="white" fill-opacity="0.1"/>
<circle cx="41.892" cy="49.6781" r="0.893149" transform="rotate(180 41.892 49.6781)" fill="white" fill-opacity="0.1"/>
<circle cx="51.6791" cy="46.9994" r="0.893149" transform="rotate(180 51.6791 46.9994)" fill="white" fill-opacity="0.1"/>
<circle cx="60.5717" cy="52.8022" r="0.893149" transform="rotate(180 60.5717 52.8022)" fill="white" fill-opacity="0.1"/>
<circle cx="12.5346" cy="59.4643" r="0.893149" transform="rotate(180 12.5346 59.4643)" fill="white" fill-opacity="0.1"/>
<circle cx="21.4272" cy="56.0658" r="0.893149" transform="rotate(180 21.4272 56.0658)" fill="white" fill-opacity="0.3"/>
<circle cx="32.1068" cy="60.3578" r="0.893149" transform="rotate(180 32.1068 60.3578)" fill="white" fill-opacity="0.1"/>
<circle cx="44.3295" cy="56.0658" r="0.893149" transform="rotate(180 44.3295 56.0658)" fill="white" fill-opacity="0.1"/>
<circle cx="51.6791" cy="56.9584" r="0.893149" transform="rotate(180 51.6791 56.9584)" fill="white" fill-opacity="0.4"/>
<circle cx="58.9115" cy="60.3578" r="0.893149" transform="rotate(180 58.9115 60.3578)" fill="white" fill-opacity="0.1"/>
</g>
<g opacity="0.6" filter="url(#filter1_f_488_13760)">
<path d="M81.7476 -66.838L39.2086 86.0317L19.9911 79.7875L81.7476 -66.838Z" fill="white"/>
</g>
<g filter="url(#filter2_dd_488_13760)">
<path d="M39.2109 18.9565V15.5723V18.9565Z" fill="white" fill-opacity="0.2"/>
<path d="M39.2109 18.9565V15.5723" stroke="white" stroke-width="2.5" stroke-linecap="round" stroke-linejoin="round"/>
<path d="M51.2969 27.9668H54.6812H51.2969Z" fill="white" fill-opacity="0.2"/>
<path d="M51.2969 27.9668H54.6812" stroke="white" stroke-width="2.5" stroke-linecap="round" stroke-linejoin="round"/>
<path d="M23.2148 27.9668H26.5991H23.2148Z" fill="white" fill-opacity="0.2"/>
<path d="M23.2148 27.9668H26.5991" stroke="white" stroke-width="2.5" stroke-linecap="round" stroke-linejoin="round"/>
<path d="M28.2754 18.5156L30.6684 20.9086L28.2754 18.5156Z" fill="white" fill-opacity="0.2"/>
<path d="M28.2754 18.5156L30.6684 20.9086" stroke="white" stroke-width="2.5" stroke-linecap="round" stroke-linejoin="round"/>
<path d="M47.7539 20.9096L50.1469 18.5166L47.7539 20.9096Z" fill="white" fill-opacity="0.2"/>
<path d="M47.7539 20.9096L50.1469 18.5166" stroke="white" stroke-width="2.5" stroke-linecap="round" stroke-linejoin="round"/>
<path d="M29.556 45.0204C29.5056 45.9793 29.7215 46.9599 30.2349 47.8491C31.6659 50.3276 34.866 51.1592 37.3824 49.7062C39.8384 48.2884 40.7356 45.2185 39.4468 42.7676" fill="white" fill-opacity="0.2"/>
<path d="M29.556 45.0204C29.5056 45.9793 29.7215 46.9599 30.2349 47.8491C31.6659 50.3276 34.866 51.1592 37.3824 49.7062C39.8384 48.2884 40.7356 45.2185 39.4468 42.7676" stroke="white" stroke-width="2.5" stroke-linecap="round" stroke-linejoin="round"/>
<path d="M46.3179 41.2237L28.2251 45.3193C24.374 46.191 21.7053 41.5687 24.3857 38.6693L36.9789 25.0483C37.2532 24.7515 37.5648 24.4659 37.9606 24.3842C42.3009 23.4882 50.3298 37.3948 47.3838 40.7057C47.1152 41.0076 46.712 41.1347 46.3179 41.2237Z" fill="white" fill-opacity="0.2" stroke="white" stroke-width="2.5" stroke-linecap="round" stroke-linejoin="round"/>
</g>
</g>
<rect x="7.5" y="5.5" width="59" height="59" rx="15.5" stroke="url(#paint1_linear_488_13760)" shape-rendering="crispEdges"/>
</g>
<defs>
<filter id="filter0_dddii_488_13760" x="0" y="0" width="74" height="74" filterUnits="userSpaceOnUse" color-interpolation-filters="sRGB">
<feFlood flood-opacity="0" result="BackgroundImageFix"/>
<feColorMatrix in="SourceAlpha" type="matrix" values="0 0 0 0 0 0 0 0 0 0 0 0 0 0 0 0 0 0 127 0" result="hardAlpha"/>
<feOffset dy="0.5"/>
<feGaussianBlur stdDeviation="0.5"/>
<feComposite in2="hardAlpha" operator="out"/>
<feColorMatrix type="matrix" values="0 0 0 0 0.129412 0 0 0 0 0.45098 0 0 0 0 0.898039 0 0 0 0.51 0"/>
<feBlend mode="normal" in2="BackgroundImageFix" result="effect1_dropShadow_488_13760"/>
<feColorMatrix in="SourceAlpha" type="matrix" values="0 0 0 0 0 0 0 0 0 0 0 0 0 0 0 0 0 0 127 0" result="hardAlpha"/>
<feOffset dy="2"/>
<feGaussianBlur stdDeviation="3.5"/>
<feComposite in2="hardAlpha" operator="out"/>
<feColorMatrix type="matrix" values="0 0 0 0 0.164706 0 0 0 0 0.521569 0 0 0 0 1 0 0 0 0.44 0"/>
<feBlend mode="normal" in2="effect1_dropShadow_488_13760" result="effect2_dropShadow_488_13760"/>
<feColorMatrix in="SourceAlpha" type="matrix" values="0 0 0 0 0 0 0 0 0 0 0 0 0 0 0 0 0 0 127 0" result="hardAlpha"/>
<feOffset dy="0.5"/>
<feGaussianBlur stdDeviation="0.25"/>
<feComposite in2="hardAlpha" operator="out"/>
<feColorMatrix type="matrix" values="0 0 0 0 0.0666667 0 0 0 0 0.137255 0 0 0 0 0.34902 0 0 0 0.57 0"/>
<feBlend mode="normal" in2="effect2_dropShadow_488_13760" result="effect3_dropShadow_488_13760"/>
<feBlend mode="normal" in="SourceGraphic" in2="effect3_dropShadow_488_13760" result="shape"/>
<feColorMatrix in="SourceAlpha" type="matrix" values="0 0 0 0 0 0 0 0 0 0 0 0 0 0 0 0 0 0 127 0" result="hardAlpha"/>
<feOffset dy="-3"/>
<feGaussianBlur stdDeviation="0.25"/>
<feComposite in2="hardAlpha" operator="arithmetic" k2="-1" k3="1"/>
<feColorMatrix type="matrix" values="0 0 0 0 0.067078 0 0 0 0 0.38555 0 0 0 0 0.827067 0 0 0 0.59 0"/>
<feBlend mode="normal" in2="shape" result="effect4_innerShadow_488_13760"/>
<feColorMatrix in="SourceAlpha" type="matrix" values="0 0 0 0 0 0 0 0 0 0 0 0 0 0 0 0 0 0 127 0" result="hardAlpha"/>
<feOffset dy="2"/>
<feGaussianBlur stdDeviation="1"/>
<feComposite in2="hardAlpha" operator="arithmetic" k2="-1" k3="1"/>
<feColorMatrix type="matrix" values="0 0 0 0 1 0 0 0 0 1 0 0 0 0 1 0 0 0 0.55 0"/>
<feBlend mode="normal" in2="effect4_innerShadow_488_13760" result="effect5_innerShadow_488_13760"/>
</filter>
<filter id="filter1_f_488_13760" x="-0.00976562" y="-86.8379" width="101.758" height="192.869" filterUnits="userSpaceOnUse" color-interpolation-filters="sRGB">
<feFlood flood-opacity="0" result="BackgroundImageFix"/>
<feBlend mode="normal" in="SourceGraphic" in2="BackgroundImageFix" result="shape"/>
<feGaussianBlur stdDeviation="10" result="effect1_foregroundBlur_488_13760"/>
</filter>
<filter id="filter2_dd_488_13760" x="16.9648" y="12.3223" width="43.9668" height="47.3486" filterUnits="userSpaceOnUse" color-interpolation-filters="sRGB">
<feFlood flood-opacity="0" result="BackgroundImageFix"/>
<feColorMatrix in="SourceAlpha" type="matrix" values="0 0 0 0 0 0 0 0 0 0 0 0 0 0 0 0 0 0 127 0" result="hardAlpha"/>
<feOffset dy="0.8"/>
<feGaussianBlur stdDeviation="0.25"/>
<feComposite in2="hardAlpha" operator="out"/>
<feColorMatrix type="matrix" values="0 0 0 0 0.0708285 0 0 0 0 0.246668 0 0 0 0 0.774186 0 0 0 0.17 0"/>
<feBlend mode="normal" in2="BackgroundImageFix" result="effect1_dropShadow_488_13760"/>
<feColorMatrix in="SourceAlpha" type="matrix" values="0 0 0 0 0 0 0 0 0 0 0 0 0 0 0 0 0 0 127 0" result="hardAlpha"/>
<feOffset dy="3"/>
<feGaussianBlur stdDeviation="2.5"/>
<feComposite in2="hardAlpha" operator="out"/>
<feColorMatrix type="matrix" values="0 0 0 0 0.0938579 0 0 0 0 0.240661 0 0 0 0 0.681071 0 0 0 0.19 0"/>
<feBlend mode="normal" in2="effect1_dropShadow_488_13760" result="effect2_dropShadow_488_13760"/>
<feBlend mode="normal" in="SourceGraphic" in2="effect2_dropShadow_488_13760" result="shape"/>
</filter>
<linearGradient id="paint0_linear_488_13760" x1="37" y1="5" x2="37" y2="65" gradientUnits="userSpaceOnUse">
<stop stop-color="#B2CDFF"/>
<stop offset="1" stop-color="#2370FF" stop-opacity="0.8"/>
</linearGradient>
<linearGradient id="paint1_linear_488_13760" x1="37" y1="5" x2="37" y2="65" gradientUnits="userSpaceOnUse">
<stop stop-color="#B2CDFF"/>
<stop offset="1" stop-color="#679CFF"/>
</linearGradient>
<clipPath id="clip0_488_13760">
<rect x="7" y="5" width="60" height="60" rx="16" fill="white"/>
</clipPath>
</defs>
</svg>
