<svg width="14" height="16" viewBox="0 0 14 16" fill="none" xmlns="http://www.w3.org/2000/svg">
<path d="M0 4.56894C0 4.09854 0.11466 3.66636 0.34398 3.2724C0.5733 2.87844 0.88788 2.56386 1.28772 2.32866C1.68756 2.09346 2.12268 1.97586 2.59308 1.97586H3.82788C3.99252 1.97586 4.13658 2.0376 4.26006 2.16108C4.38354 2.28456 4.44528 2.43156 4.44528 2.60208C4.44528 2.7726 4.38354 2.9196 4.26006 3.04308C4.13658 3.16656 3.99252 3.2283 3.82788 3.2283H2.59308C2.22852 3.2283 1.91394 3.35766 1.64934 3.61638C1.38474 3.8751 1.25244 4.19262 1.25244 4.56894V12.9479C1.25244 13.3125 1.38474 13.6271 1.64934 13.8917C1.91394 14.1563 2.22852 14.2886 2.59308 14.2886H10.9544C11.3308 14.2886 11.6483 14.1563 11.907 13.8917C12.1657 13.6271 12.2951 13.3125 12.2951 12.9479V4.56894C12.2951 4.19262 12.1657 3.8751 11.907 3.61638C11.6483 3.35766 11.3308 3.2283 10.9544 3.2283H9.73728C9.56088 3.2283 9.41094 3.16656 9.28746 3.04308C9.16398 2.9196 9.10224 2.7726 9.10224 2.60208C9.10224 2.43156 9.16398 2.28456 9.28746 2.16108C9.41094 2.0376 9.56088 1.97586 9.73728 1.97586H10.9544C11.4248 1.97586 11.86 2.09346 12.2598 2.32866C12.6596 2.56386 12.9772 2.87844 13.2124 3.2724C13.4476 3.66636 13.5652 4.09854 13.5652 4.56894V12.9479C13.5652 13.4183 13.4476 13.8505 13.2124 14.2445C12.9772 14.6384 12.6596 14.953 12.2598 15.1882C11.86 15.4234 11.4248 15.541 10.9544 15.541H2.59308C2.12268 15.541 1.68756 15.4234 1.28772 15.1882C0.88788 14.953 0.5733 14.6384 0.34398 14.2445C0.11466 13.8505 0 13.4183 0 12.9479V4.56894ZM4.81572 1.27026C4.70988 1.27026 4.62168 1.30554 4.55112 1.3761C4.48056 1.44666 4.44528 1.52898 4.44528 1.62306V3.10482C4.44528 3.1989 4.48056 3.28122 4.55112 3.35178C4.62168 3.42234 4.70988 3.45762 4.81572 3.45762H8.74944C8.84352 3.45762 8.92584 3.42234 8.9964 3.35178C9.06696 3.28122 9.10224 3.1989 9.10224 3.10482V1.62306C9.10224 1.52898 9.06696 1.44666 8.9964 1.3761C8.92584 1.30554 8.84352 1.27026 8.74944 1.27026H4.81572ZM3.19284 1.62306C3.19284 1.17618 3.3516 0.793976 3.66912 0.476456C3.98664 0.158936 4.36884 0.000175476 4.81572 0.000175476H8.74944C9.19632 0.000175476 9.57558 0.158936 9.88722 0.476456C10.1989 0.793976 10.3547 1.17618 10.3547 1.62306V3.10482C10.3547 3.53994 10.1989 3.91626 9.88722 4.23378C9.57558 4.5513 9.19632 4.71006 8.74944 4.71006H4.81572C4.36884 4.71006 3.98664 4.55424 3.66912 4.2426C3.3516 3.93096 3.19284 3.5517 3.19284 3.10482V1.62306ZM3.93372 8.02638C3.93372 7.84998 3.99546 7.70004 4.11894 7.57656C4.24242 7.45308 4.39236 7.39134 4.56876 7.39134H8.9964C9.1728 7.39134 9.3198 7.45308 9.4374 7.57656C9.555 7.70004 9.6138 7.84704 9.6138 8.01756C9.6138 8.18808 9.555 8.33508 9.4374 8.45856C9.3198 8.58204 9.1728 8.64378 8.9964 8.64378H4.56876C4.39236 8.64378 4.24242 8.58204 4.11894 8.45856C3.99546 8.33508 3.93372 8.19102 3.93372 8.02638ZM3.93372 10.9723C3.93372 10.7959 3.99546 10.6459 4.11894 10.5224C4.24242 10.399 4.39236 10.3372 4.56876 10.3372H8.9964C9.1728 10.3372 9.3198 10.399 9.4374 10.5224C9.555 10.6459 9.6138 10.7959 9.6138 10.9723C9.6138 11.1487 9.555 11.2986 9.4374 11.4221C9.3198 11.5456 9.1728 11.6073 8.9964 11.6073H4.56876C4.39236 11.6073 4.24242 11.5456 4.11894 11.4221C3.99546 11.2986 3.93372 11.1487 3.93372 10.9723Z" fill="#6477B4"/>
</svg>
