<svg width="245" height="108" viewBox="0 0 245 108" fill="none" xmlns="http://www.w3.org/2000/svg">
<path d="M70.3415 60.8163V44.6244C70.3415 41.7837 72.6851 39.4401 75.5968 39.4401C78.4375 39.4401 80.7101 41.7837 80.7101 44.6244V60.8874C80.7101 65.2904 83.6218 68.3442 87.6697 68.3442C91.7888 68.3442 94.6294 65.2904 94.6294 60.8874V44.6244C94.6294 41.7837 96.973 39.4401 99.8137 39.4401C102.725 39.4401 104.998 41.7837 104.998 44.6244V60.8163C104.998 70.6167 97.8962 77.5054 87.6697 77.5054C77.5143 77.5054 70.3415 70.6167 70.3415 60.8163Z" fill="white"/>
<path d="M116.634 38.147C119.369 38.1471 121.683 40.24 121.683 42.7769C121.683 42.7769 121.683 45.2731 121.683 48.7466C121.695 48.8058 121.703 48.8659 121.703 48.9272V72.7866C121.703 75.0321 119.379 76.8851 116.493 76.8853C113.747 76.8853 111.424 75.0322 111.424 72.7866V48.9272C111.424 48.8642 111.431 48.8024 111.443 48.7417V42.7769C111.443 40.2399 113.758 38.147 116.634 38.147ZM116.634 24.2563C119.86 24.2565 122.525 26.667 122.525 29.5845C122.525 32.502 119.86 34.9124 116.634 34.9126C113.267 34.9126 110.601 32.5021 110.601 29.5845C110.601 26.6669 113.267 24.2563 116.634 24.2563Z" fill="white"/>
<path d="M178.718 38.147C181.454 38.1471 183.768 40.24 183.768 42.7769C183.768 42.7769 183.768 45.2731 183.768 48.7466C183.779 48.8058 183.788 48.8658 183.788 48.9272V72.7866C183.788 75.0321 181.464 76.8851 178.578 76.8853C175.832 76.8853 173.508 75.0322 173.508 72.7866V48.9272C173.508 48.8652 173.516 48.8044 173.528 48.7446V42.7769C173.528 40.2399 175.843 38.147 178.718 38.147ZM178.718 24.2563C181.945 24.2565 184.61 26.667 184.61 29.5845C184.61 32.502 181.945 34.9125 178.718 34.9126C175.352 34.9126 172.686 32.5021 172.686 29.5845C172.686 26.6669 175.352 24.2563 178.718 24.2563Z" fill="white"/>
<path d="M147.687 68.6128C152.872 68.6128 156.636 64.6358 156.636 58.7414C156.636 52.989 152.872 49.012 147.687 49.012C142.361 49.012 138.597 52.989 138.597 58.7414C138.597 64.6358 142.361 68.6128 147.687 68.6128ZM166.791 30.8316V58.7414C166.791 69.9621 158.908 77.845 147.687 77.845C136.396 77.845 128.442 69.9621 128.442 58.7414C128.442 47.6627 135.543 39.7798 145.557 39.7798C149.889 39.7798 153.582 41.2001 156.423 43.8277V30.8316C156.423 27.9909 158.766 25.6473 161.536 25.6473C164.448 25.6473 166.791 27.9909 166.791 30.8316Z" fill="white"/>
<path d="M222.058 48.0178L212.897 58.5993L221.987 69.0389C223.833 71.1694 223.478 74.2942 221.419 76.0696C220.425 76.8508 219.288 77.2769 218.152 77.2769C216.803 77.2769 215.382 76.6378 214.388 75.5015L206.292 66.1982L198.196 75.5015C197.131 76.6378 195.782 77.2769 194.361 77.2769C193.225 77.2769 192.089 76.8508 191.094 76.0696C189.035 74.2942 188.68 71.1694 190.597 69.0389L199.688 58.5993L190.455 48.0178C188.68 46.0293 189.035 42.9045 191.166 41.0581C192.089 40.2769 193.225 39.9218 194.29 39.9218C195.711 39.9218 197.131 40.4899 198.125 41.6262L206.292 51.0005L214.388 41.6262C215.382 40.4899 216.803 39.9218 218.223 39.9218C219.359 39.9218 220.496 40.2769 221.419 41.0581C223.478 42.9045 223.833 46.0293 222.058 48.0178Z" fill="white"/>
<path d="M30.9098 76.0615C33.0408 76.0615 34.7022 77.8504 35.5006 79.8262C36.0012 81.0648 36.7486 82.203 37.7115 83.166C39.5958 85.0502 42.1514 86.1093 44.816 86.1094C47.4807 86.1094 50.0363 85.0502 51.9205 83.166C52.8835 82.2031 53.6309 81.0648 54.1315 79.8262C54.905 77.9121 56.4884 76.1731 58.524 76.0664L58.7223 76.0615H59.8707C62.0017 76.0615 63.7692 77.8068 63.3375 79.8936L63.1862 80.5635C62.3698 83.8943 60.6553 86.9703 58.1901 89.4355L57.8531 89.7637C54.3416 93.1049 49.6751 94.9746 44.816 94.9746C39.957 94.9745 35.2904 93.1049 31.7789 89.7637L31.442 89.4355C28.9768 86.9703 27.2623 83.8943 26.4459 80.5635L26.2955 79.8936C25.8638 77.8068 27.6305 76.0617 29.7614 76.0615H30.9098ZM44.816 36.1797C55.2614 36.1797 63.729 44.6474 63.7291 55.0928C63.7291 65.5382 55.2615 74.0059 44.816 74.0059C34.3707 74.0057 25.903 65.5382 25.903 55.0928C25.9031 44.6475 34.3707 36.1798 44.816 36.1797ZM44.816 44.6689C39.059 44.6691 34.3923 49.3358 34.3922 55.0928C34.3922 60.8498 39.059 65.5175 44.816 65.5176C50.5732 65.5176 55.2408 60.8499 55.2408 55.0928C55.2407 49.3357 50.5732 44.6689 44.816 44.6689Z" fill="white"/>
</svg>
