<svg width="246" height="109" viewBox="0 0 246 109" fill="none" xmlns="http://www.w3.org/2000/svg">
<rect x="0.460266" y="0.479492" width="244.605" height="107.723" rx="3.30101" fill="url(#paint0_linear_10_24735)"/>
<path d="M70.8017 61.2958V45.1039C70.8017 42.2632 73.1453 39.9196 76.057 39.9196C78.8977 39.9196 81.1703 42.2632 81.1703 45.1039V61.3669C81.1703 65.7699 84.082 68.8237 88.13 68.8237C92.249 68.8237 95.0897 65.7699 95.0897 61.3669V45.1039C95.0897 42.2632 97.4332 39.9196 100.274 39.9196C103.186 39.9196 105.458 42.2632 105.458 45.1039V61.2958C105.458 71.0962 98.3564 77.9849 88.13 77.9849C77.9745 77.9849 70.8017 71.0962 70.8017 61.2958Z" fill="white"/>
<path d="M117.094 38.6265C119.829 38.6266 122.143 40.7195 122.144 43.2563C122.144 43.2563 122.144 45.7526 122.144 49.2261C122.155 49.2853 122.163 49.3453 122.163 49.4067V73.2661C122.163 75.5116 119.84 77.3646 116.953 77.3647C114.207 77.3647 111.884 75.5117 111.884 73.2661V49.4067C111.884 49.3437 111.891 49.2819 111.903 49.2212V43.2563C111.904 40.7194 114.218 38.6265 117.094 38.6265ZM117.094 24.7358C120.32 24.736 122.985 27.1465 122.985 30.064C122.985 32.9815 120.32 35.3919 117.094 35.3921C113.727 35.3921 111.062 32.9816 111.062 30.064C111.062 27.1464 113.727 24.7358 117.094 24.7358Z" fill="white"/>
<path d="M179.179 38.6265C181.914 38.6266 184.228 40.7195 184.228 43.2563C184.228 43.2563 184.228 45.7526 184.228 49.2261C184.24 49.2853 184.248 49.3453 184.248 49.4067V73.2661C184.248 75.5116 181.924 77.3646 179.038 77.3647C176.292 77.3647 173.969 75.5117 173.969 73.2661V49.4067C173.969 49.3447 173.977 49.2839 173.988 49.2241V43.2563C173.988 40.7194 176.303 38.6265 179.179 38.6265ZM179.179 24.7358C182.405 24.736 185.07 27.1465 185.07 30.064C185.07 32.9815 182.405 35.392 179.179 35.3921C175.812 35.3921 173.146 32.9816 173.146 30.064C173.146 27.1464 175.812 24.7358 179.179 24.7358Z" fill="white"/>
<path d="M148.148 69.0923C153.332 69.0923 157.096 65.1153 157.096 59.2209C157.096 53.4685 153.332 49.4915 148.148 49.4915C142.821 49.4915 139.058 53.4685 139.058 59.2209C139.058 65.1153 142.821 69.0923 148.148 69.0923ZM167.251 31.3111V59.2209C167.251 70.4416 159.368 78.3245 148.148 78.3245C136.856 78.3245 128.902 70.4416 128.902 59.2209C128.902 48.1422 136.004 40.2592 146.017 40.2592C150.349 40.2592 154.042 41.6796 156.883 44.3072V31.3111C156.883 28.4704 159.226 26.1268 161.996 26.1268C164.908 26.1268 167.251 28.4704 167.251 31.3111Z" fill="white"/>
<path d="M222.518 48.4973L213.357 59.0788L222.447 69.5184C224.294 71.6489 223.939 74.7737 221.879 76.5491C220.885 77.3303 219.749 77.7564 218.612 77.7564C217.263 77.7564 215.843 77.1172 214.848 75.981L206.752 66.6777L198.657 75.981C197.591 77.1172 196.242 77.7564 194.822 77.7564C193.685 77.7564 192.549 77.3303 191.555 76.5491C189.495 74.7737 189.14 71.6489 191.058 69.5184L200.148 59.0788L190.916 48.4973C189.14 46.5088 189.495 43.384 191.626 41.5376C192.549 40.7564 193.685 40.4013 194.751 40.4013C196.171 40.4013 197.591 40.9694 198.586 42.1057L206.752 51.48L214.848 42.1057C215.843 40.9694 217.263 40.4013 218.683 40.4013C219.82 40.4013 220.956 40.7564 221.879 41.5376C223.939 43.384 224.294 46.5088 222.518 48.4973Z" fill="white"/>
<path d="M31.37 76.541C33.501 76.541 35.1624 78.3299 35.9608 80.3057C36.4614 81.5443 37.2088 82.6825 38.1718 83.6455C40.056 85.5297 42.6116 86.5888 45.2762 86.5889C47.9409 86.5889 50.4965 85.5297 52.3807 83.6455C53.3437 82.6826 54.0911 81.5443 54.5917 80.3057C55.3652 78.3916 56.9486 76.6526 58.9843 76.5459L59.1825 76.541H60.3309C62.4619 76.541 64.2294 78.2863 63.7977 80.373L63.6464 81.043C62.83 84.3738 61.1155 87.4498 58.6503 89.915L58.3134 90.2432C54.8018 93.5844 50.1353 95.4541 45.2762 95.4541C40.4172 95.454 35.7506 93.5844 32.2391 90.2432L31.9022 89.915C29.437 87.4498 27.7225 84.3738 26.9061 81.043L26.7557 80.373C26.324 78.2863 28.0907 76.5412 30.2216 76.541H31.37ZM45.2762 36.6592C55.7217 36.6592 64.1892 45.1269 64.1893 55.5723C64.1893 66.0177 55.7217 74.4854 45.2762 74.4854C34.8309 74.4852 26.3632 66.0176 26.3632 55.5723C26.3633 45.127 34.8309 36.6593 45.2762 36.6592ZM45.2762 45.1484C39.5192 45.1486 34.8525 49.8153 34.8524 55.5723C34.8524 61.3293 39.5192 65.9969 45.2762 65.9971C51.0334 65.9971 55.701 61.3294 55.701 55.5723C55.7009 49.8152 51.0334 45.1484 45.2762 45.1484Z" fill="white"/>
<defs>
<linearGradient id="paint0_linear_10_24735" x1="122.763" y1="0.479492" x2="122.763" y2="108.203" gradientUnits="userSpaceOnUse">
<stop stop-color="#2D4DBE"/>
<stop offset="1" stop-color="#162771"/>
</linearGradient>
</defs>
</svg>
