<svg width="28" height="32" viewBox="0 0 28 32" fill="none" xmlns="http://www.w3.org/2000/svg">
<g filter="url(#filter0_dddii_11352_79195)">
<path d="M20.2924 19.8052C20.2475 20.4339 19.4922 20.7276 19.0342 20.2947L14.9277 16.4125C14.4072 15.9204 13.593 15.9204 13.0725 16.4124L8.96596 20.2947C8.50792 20.7276 7.7527 20.4339 7.7078 19.8052C7.40266 15.5339 7.38988 11.2503 7.64331 6.97837C7.72652 5.57643 8.90045 4.5 10.3049 4.5H17.6952C19.0997 4.5 20.2736 5.57643 20.3569 6.97837C20.6104 11.2503 20.5974 15.5339 20.2924 19.8052Z" fill="url(#paint0_linear_11352_79195)"/>
<path d="M20.2924 19.8052C20.2475 20.4339 19.4922 20.7276 19.0342 20.2947L14.9277 16.4125C14.4072 15.9204 13.593 15.9204 13.0725 16.4124L8.96596 20.2947C8.50792 20.7276 7.7527 20.4339 7.7078 19.8052C7.40266 15.5339 7.38988 11.2503 7.64331 6.97837C7.72652 5.57643 8.90045 4.5 10.3049 4.5H17.6952C19.0997 4.5 20.2736 5.57643 20.3569 6.97837C20.6104 11.2503 20.5974 15.5339 20.2924 19.8052Z" stroke="url(#paint1_linear_11352_79195)" stroke-linecap="round" stroke-linejoin="round"/>
</g>
<defs>
<filter id="filter0_dddii_11352_79195" x="0.168449" y="0.453362" width="27.6633" height="30.5943" filterUnits="userSpaceOnUse" color-interpolation-filters="sRGB">
<feFlood flood-opacity="0" result="BackgroundImageFix"/>
<feColorMatrix in="SourceAlpha" type="matrix" values="0 0 0 0 0 0 0 0 0 0 0 0 0 0 0 0 0 0 127 0" result="hardAlpha"/>
<feOffset dy="0.42479"/>
<feGaussianBlur stdDeviation="0.42479"/>
<feComposite in2="hardAlpha" operator="out"/>
<feColorMatrix type="matrix" values="0 0 0 0 0.180924 0 0 0 0 0.356669 0 0 0 0 0.883903 0 0 0 0.24 0"/>
<feBlend mode="normal" in2="BackgroundImageFix" result="effect1_dropShadow_11352_79195"/>
<feColorMatrix in="SourceAlpha" type="matrix" values="0 0 0 0 0 0 0 0 0 0 0 0 0 0 0 0 0 0 127 0" result="hardAlpha"/>
<feOffset dy="3.25"/>
<feGaussianBlur stdDeviation="3.39832"/>
<feComposite in2="hardAlpha" operator="out"/>
<feColorMatrix type="matrix" values="0 0 0 0 0.164706 0 0 0 0 0.521569 0 0 0 0 1 0 0 0 0.06 0"/>
<feBlend mode="normal" in2="effect1_dropShadow_11352_79195" result="effect2_dropShadow_11352_79195"/>
<feColorMatrix in="SourceAlpha" type="matrix" values="0 0 0 0 0 0 0 0 0 0 0 0 0 0 0 0 0 0 127 0" result="hardAlpha"/>
<feOffset dy="1.55"/>
<feGaussianBlur stdDeviation="1.69916"/>
<feComposite in2="hardAlpha" operator="out"/>
<feColorMatrix type="matrix" values="0 0 0 0 0.0666667 0 0 0 0 0.137255 0 0 0 0 0.34902 0 0 0 0.05 0"/>
<feBlend mode="normal" in2="effect2_dropShadow_11352_79195" result="effect3_dropShadow_11352_79195"/>
<feBlend mode="normal" in="SourceGraphic" in2="effect3_dropShadow_11352_79195" result="shape"/>
<feColorMatrix in="SourceAlpha" type="matrix" values="0 0 0 0 0 0 0 0 0 0 0 0 0 0 0 0 0 0 127 0" result="hardAlpha"/>
<feOffset dy="1.69916"/>
<feGaussianBlur stdDeviation="0.42479"/>
<feComposite in2="hardAlpha" operator="arithmetic" k2="-1" k3="1"/>
<feColorMatrix type="matrix" values="0 0 0 0 1 0 0 0 0 1 0 0 0 0 1 0 0 0 0.7 0"/>
<feBlend mode="normal" in2="shape" result="effect4_innerShadow_11352_79195"/>
<feColorMatrix in="SourceAlpha" type="matrix" values="0 0 0 0 0 0 0 0 0 0 0 0 0 0 0 0 0 0 127 0" result="hardAlpha"/>
<feOffset dy="-0.84958"/>
<feGaussianBlur stdDeviation="0.42479"/>
<feComposite in2="hardAlpha" operator="arithmetic" k2="-1" k3="1"/>
<feColorMatrix type="matrix" values="0 0 0 0 0 0 0 0 0 0.159074 0 0 0 0 0.636296 0 0 0 0.44 0"/>
<feBlend mode="normal" in2="effect4_innerShadow_11352_79195" result="effect5_innerShadow_11352_79195"/>
</filter>
<linearGradient id="paint0_linear_11352_79195" x1="14.0001" y1="4.5" x2="14.0001" y2="20.5" gradientUnits="userSpaceOnUse">
<stop stop-color="#E9F1FF"/>
<stop offset="1" stop-color="#B2CDFF"/>
</linearGradient>
<linearGradient id="paint1_linear_11352_79195" x1="14.0001" y1="4.5" x2="14.0001" y2="20.5" gradientUnits="userSpaceOnUse">
<stop stop-color="#E9F1FF"/>
<stop offset="1" stop-color="#B2CDFF"/>
</linearGradient>
</defs>
</svg>
