<svg width="20" height="20" viewBox="0 0 20 20" fill="none" xmlns="http://www.w3.org/2000/svg">
<path d="M6.48222 3.84483H5.0167C3.72169 3.84483 2.67188 4.89465 2.67188 6.18966V16.1552C2.67188 17.4502 3.72169 18.5 5.0167 18.5H14.9822C16.2773 18.5 17.327 17.4502 17.327 16.1552V6.18966C17.327 4.89465 16.2773 3.84483 14.9822 3.84483H13.5167M7.36156 10.2931H12.6374M7.36156 13.8103H12.6374M12.3443 5.60345H7.65461C7.00711 5.60345 6.48219 5.07854 6.48219 4.43103V2.67241C6.48219 2.02491 7.00711 1.5 7.65461 1.5H12.3443C12.9918 1.5 13.5167 2.02491 13.5167 2.67241V4.43103C13.5167 5.07854 12.9918 5.60345 12.3443 5.60345Z" stroke="#000E41" stroke-width="1.5" stroke-linecap="round" stroke-linejoin="round"/>
</svg>
